<?xml version="1.0" encoding="utf-8"?>
<!-- Generator: Adobe Illustrator 22.1.0, SVG Export Plug-In . SVG Version: 6.00 Build 0)  -->
<svg version="1.1" id="Layer_1" xmlns="http://www.w3.org/2000/svg" xmlns:xlink="http://www.w3.org/1999/xlink" x="0px" y="0px"
	 viewBox="0 0 48 48" style="enable-background:new 0 0 48 48;" xml:space="preserve">
<style type="text/css">
	.st0{fill:none;stroke:#FBB03B;stroke-width:2;stroke-miterlimit:10;}
	.st1{fill:none;stroke:#000000;stroke-miterlimit:10;}
	.st2{fill:none;stroke:#FE0000;stroke-miterlimit:10;}
</style>
<line class="st0" x1="7.7" y1="34.8" x2="8.1" y2="43.8"/>
<line class="st0" x1="40.6" y1="5.3" x2="40.5" y2="14.6"/>
<line class="st0" x1="33.7" y1="7.3" x2="37.1" y2="15.2"/>
<line class="st0" x1="28.5" y1="11.2" x2="34.4" y2="16.9"/>
<line class="st0" x1="31.8" y1="20.2" x2="24.9" y2="15.8"/>
<line class="st0" x1="20" y1="24" x2="27.1" y2="27.6"/>
<line class="st0" x1="22.1" y1="20.2" x2="29.2" y2="23.8"/>
<line class="st0" x1="17.9" y1="27.3" x2="24.9" y2="31.4"/>
<line class="st0" x1="13.1" y1="32.6" x2="18.8" y2="39.8"/>
<line class="st0" x1="15.4" y1="30.5" x2="22.1" y2="35.6"/>
<line class="st0" x1="10.8" y1="34.1" x2="14.2" y2="42.3"/>
<path class="st1" d="M6.5,36C22.8,36,22.1,6.7,42.2,6.7"/>
<path class="st1" d="M6.5,42.3c21.2,0,18.4-29.9,35.7-29.4"/>
<path class="st1" d="M14.2,32"/>
<path class="st1" d="M19.7,38.4"/>
<line class="st2" x1="41" y1="9.5" x2="17" y2="9.5"/>
<line class="st2" x1="8" y1="39.5" x2="27" y2="39.5"/>
<path class="st2" d="M16.8,9.8c0,1.4-1.2,2.6-2.7,2.6c-1.5,0-2.7-1.2-2.7-2.6c0-1.4,1.2-2.6,2.7-2.6C15.6,7.3,16.8,8.4,16.8,9.8z"/>
<path class="st2" d="M32.3,39.1c0,1.4-1.2,2.6-2.7,2.6c-1.5,0-2.7-1.2-2.7-2.6c0-1.4,1.2-2.6,2.7-2.6C31.1,36.5,32.3,37.6,32.3,39.1
	z"/>
</svg>
