<?xml version="1.0" encoding="utf-8"?>
<!-- Generator: Adobe Illustrator 22.1.0, SVG Export Plug-In . SVG Version: 6.00 Build 0)  -->
<svg version="1.1" id="Layer_1" xmlns="http://www.w3.org/2000/svg" xmlns:xlink="http://www.w3.org/1999/xlink" x="0px" y="0px"
	 viewBox="0 0 48 48" style="enable-background:new 0 0 48 48;" xml:space="preserve">
<style type="text/css">
	.st0{fill:none;stroke:#000000;stroke-width:2;stroke-miterlimit:10;}
	.st1{fill:none;stroke:#000000;stroke-miterlimit:10;}
	.st2{fill:none;stroke:#FE0000;stroke-miterlimit:10;}
</style>
<path class="st0" d="M6.5,42.3C27.7,42.3,24.8,9.5,42,9.5"/>
<path class="st1" d="M14.2,32"/>
<path class="st1" d="M19.7,38.4"/>
<line class="st2" x1="42" y1="9.5" x2="18" y2="9.5"/>
<line class="st2" x1="6.5" y1="42.3" x2="24.8" y2="42.1"/>
<path class="st2" d="M17.8,9.8c0,1.4-1.2,2.6-2.7,2.6c-1.5,0-2.7-1.2-2.7-2.6c0-1.4,1.2-2.6,2.7-2.6C16.6,7.3,17.8,8.4,17.8,9.8z"/>
<path class="st2" d="M30.3,42.1c0,1.4-1.2,2.6-2.7,2.6c-1.5,0-2.7-1.2-2.7-2.6c0-1.4,1.2-2.6,2.7-2.6C29.1,39.5,30.3,40.6,30.3,42.1
	z"/>
</svg>
