<?xml version="1.0" encoding="utf-8"?>
<!-- Generator: Adobe Illustrator 22.1.0, SVG Export Plug-In . SVG Version: 6.00 Build 0)  -->
<svg version="1.1" id="Layer_1" xmlns="http://www.w3.org/2000/svg" xmlns:xlink="http://www.w3.org/1999/xlink" x="0px" y="0px"
	 viewBox="0 0 48 48" style="enable-background:new 0 0 48 48;" xml:space="preserve">
<style type="text/css">
	.st0{fill:none;stroke:#FBB03B;stroke-width:2;stroke-miterlimit:10;}
	.st1{fill:none;stroke:#000000;stroke-miterlimit:10;}
	.st2{fill:none;stroke:#FF0000;stroke-width:2;stroke-miterlimit:10;}
	.st3{fill:none;stroke:#FF0000;stroke-width:2;stroke-linecap:round;stroke-miterlimit:10;}
</style>
<line class="st0" x1="23.9" y1="2.9" x2="24" y2="11.9"/>
<line class="st0" x1="23.9" y1="36.9" x2="24" y2="45.1"/>
<line class="st0" x1="36.5" y1="24" x2="45.3" y2="24.2"/>
<line class="st0" x1="3" y1="25" x2="12" y2="25"/>
<line class="st0" x1="8.7" y1="9.9" x2="14.7" y2="15.3"/>
<line class="st0" x1="38.6" y1="8.4" x2="32.8" y2="15.3"/>
<line class="st0" x1="32" y1="4.5" x2="28.8" y2="12.6"/>
<line class="st0" x1="43.3" y1="14.7" x2="35.1" y2="19"/>
<line class="st0" x1="14.7" y1="4.9" x2="18.6" y2="12.6"/>
<line class="st0" x1="4.1" y1="16.9" x2="12.4" y2="19.7"/>
<line class="st0" x1="8.7" y1="39" x2="15.3" y2="32.8"/>
<line class="st0" x1="4.6" y1="32.8" x2="12.8" y2="28.9"/>
<line class="st0" x1="15.3" y1="43.9" x2="19.4" y2="35.4"/>
<line class="st0" x1="39.2" y1="39.6" x2="32.8" y2="33.1"/>
<line class="st0" x1="43.9" y1="32.8" x2="34.7" y2="29.6"/>
<line class="st0" x1="32" y1="43.9" x2="28.8" y2="35.9"/>
<path class="st1" d="M43.9,24.2c0,10.9-8.8,19.7-19.7,19.7c-10.9,0-19.7-8.8-19.7-19.7c0-10.9,8.8-19.7,19.7-19.7
	C35.1,4.5,43.9,13.3,43.9,24.2z"/>
<path class="st1" d="M37.7,24.2c0,7.6-6.1,13.7-13.7,13.7c-7.6,0-13.7-6.1-13.7-13.7c0-7.6,6.1-13.7,13.7-13.7
	C31.5,10.5,37.7,16.6,37.7,24.2z"/>
<line class="st1" x1="43.5" y1="45" x2="43.5" y2="45"/>
<line class="st2" x1="24.2" y1="24.5" x2="36" y2="36.3"/>
<polyline class="st3" points="28.8,24 24.4,24.7 23.7,29.1 "/>
</svg>
