<?xml version="1.0" encoding="utf-8"?>
<!-- Generator: Adobe Illustrator 22.1.0, SVG Export Plug-In . SVG Version: 6.00 Build 0)  -->
<svg version="1.1" id="Layer_1" xmlns="http://www.w3.org/2000/svg" xmlns:xlink="http://www.w3.org/1999/xlink" x="0px" y="0px"
	 viewBox="0 0 48 48" style="enable-background:new 0 0 48 48;" xml:space="preserve">
<style type="text/css">
	.st0{fill:none;stroke:#FBB03B;stroke-width:2;stroke-miterlimit:10;}
	.st1{fill:none;stroke:#000000;stroke-width:2;stroke-miterlimit:10;}
	.st2{fill:none;stroke:#000000;stroke-miterlimit:10;}
	.st3{fill:none;stroke:#FF0000;stroke-width:2;stroke-miterlimit:10;}
	.st4{fill:none;stroke:#FF0000;stroke-width:2;stroke-linecap:round;stroke-miterlimit:10;}
	.st5{fill:#FB0000;}
	.st6{font-family:'MyriadPro-Regular';}
	.st7{font-size:12px;}
</style>
<path class="st0" d="M24,11.9"/>
<path class="st0" d="M23.9,2.9"/>
<path class="st0" d="M24,45.1"/>
<path class="st0" d="M23.9,36.9"/>
<path class="st0" d="M45.3,24.2"/>
<path class="st0" d="M36.5,24"/>
<path class="st0" d="M12,25"/>
<path class="st0" d="M3,25"/>
<path class="st0" d="M14.7,15.3"/>
<path class="st0" d="M8.7,9.9"/>
<path class="st0" d="M32.8,15.3"/>
<path class="st0" d="M38.6,8.4"/>
<path class="st0" d="M28.8,12.6"/>
<path class="st0" d="M32,4.5"/>
<path class="st0" d="M35.1,19"/>
<path class="st0" d="M43.3,14.7"/>
<path class="st0" d="M18.6,12.6"/>
<path class="st0" d="M14.7,4.9"/>
<path class="st0" d="M12.4,19.7"/>
<path class="st0" d="M4.1,16.9"/>
<path class="st0" d="M15.3,32.8"/>
<path class="st0" d="M8.7,39"/>
<path class="st0" d="M12.8,28.9"/>
<path class="st0" d="M4.6,32.8"/>
<path class="st0" d="M19.4,35.4"/>
<path class="st0" d="M15.3,43.9"/>
<path class="st0" d="M32.4,33.5"/>
<path class="st0" d="M39.2,39.6"/>
<path class="st0" d="M34.7,29.6"/>
<path class="st0" d="M43.9,32.8"/>
<path class="st0" d="M28.8,35.9"/>
<path class="st0" d="M32,43.9"/>
<path class="st1" d="M43.9,24.2c0,10.9-8.8,19.7-19.7,19.7c-10.9,0-19.7-8.8-19.7-19.7c0-10.9,8.8-19.7,19.7-19.7
	C35.1,4.5,43.9,13.3,43.9,24.2z"/>
<line class="st2" x1="43.5" y1="45" x2="43.5" y2="45"/>
<line class="st3" x1="5.4" y1="24.5" x2="42.4" y2="24"/>
<polyline class="st4" points="8.6,20.9 5.6,24.5 8.6,28.1 "/>
<polyline class="st4" points="39.2,27.7 42.6,24.2 39.2,20.9 "/>
<text transform="matrix(1 0 0 1 18.0747 23.04)" class="st5 st6 st7">36</text>
</svg>
