<?xml version="1.0" encoding="utf-8"?>
<!-- Generator: Adobe Illustrator 22.1.0, SVG Export Plug-In . SVG Version: 6.00 Build 0)  -->
<svg version="1.1" id="Layer_1" xmlns="http://www.w3.org/2000/svg" xmlns:xlink="http://www.w3.org/1999/xlink" x="0px" y="0px"
	 viewBox="0 0 48 48" style="enable-background:new 0 0 48 48;" xml:space="preserve">
<style type="text/css">
	.st0{fill:none;stroke:#5494FF;stroke-width:2;stroke-miterlimit:10;}
	.st1{fill:none;stroke:#003794;stroke-miterlimit:10;}
	.st2{fill:none;stroke:#FB0000;stroke-width:2;stroke-miterlimit:10;}
	.st3{fill:none;stroke:#FB0000;stroke-miterlimit:10;}
	.st4{fill:none;stroke:#FB0000;stroke-width:2;stroke-linecap:round;stroke-miterlimit:10;}
</style>
<line class="st0" x1="8" y1="13" x2="8" y2="24"/>
<line class="st0" x1="13" y1="13" x2="13" y2="24"/>
<line class="st0" x1="18" y1="13" x2="18" y2="24"/>
<line class="st0" x1="28" y1="13" x2="28" y2="24"/>
<line class="st0" x1="33" y1="13" x2="33" y2="24"/>
<line class="st0" x1="38" y1="13" x2="38" y2="24"/>
<line class="st1" x1="24" y1="14.5" x2="40" y2="14.5"/>
<line class="st1" x1="6" y1="14.5" x2="22" y2="14.5"/>
<line class="st1" x1="24" y1="22.5" x2="40" y2="22.5"/>
<line class="st1" x1="6" y1="22.5" x2="22" y2="22.5"/>
<line class="st2" x1="24" y1="29" x2="40" y2="29"/>
<path class="st3" d="M24.7,28.7"/>
<polyline class="st4" points="28.5,33.3 24.2,29 28.5,24.8 "/>
<line class="st2" x1="22" y1="29" x2="7" y2="29"/>
<polyline class="st4" points="18.3,33.3 21.8,29 18.3,24.8 "/>
</svg>
