<?xml version="1.0" encoding="utf-8"?>
<!-- Generator: Adobe Illustrator 22.1.0, SVG Export Plug-In . SVG Version: 6.00 Build 0)  -->
<svg version="1.1" id="Layer_1" xmlns="http://www.w3.org/2000/svg" xmlns:xlink="http://www.w3.org/1999/xlink" x="0px" y="0px"
	 viewBox="0 0 48 48" style="enable-background:new 0 0 48 48;" xml:space="preserve">
<style type="text/css">
	.st0{fill:none;stroke:#FBB03B;stroke-width:2;stroke-miterlimit:10;}
	.st1{fill:none;stroke:#000000;stroke-width:2;stroke-miterlimit:10;}
	.st2{fill:none;stroke:#000000;stroke-miterlimit:10;}
	.st3{fill:none;stroke:#FC1500;stroke-miterlimit:10;}
	.st4{fill:#BF8700;stroke:#FF0000;stroke-width:2;stroke-miterlimit:10;}
	.st5{fill:none;stroke:#FF0000;stroke-miterlimit:10;}
	.st6{fill:none;stroke:#FF0000;stroke-width:2;stroke-linecap:round;stroke-miterlimit:10;}
</style>
<path class="st0" d="M15.3,40.7"/>
<path class="st0" d="M6.4,40.3"/>
<path class="st0" d="M29.7,19.3"/>
<path class="st0" d="M25.7,11.6"/>
<path class="st0" d="M17.4,31.7"/>
<path class="st0" d="M9.7,27.9"/>
<path class="st0" d="M25.4,21.7"/>
<path class="st0" d="M20,14.9"/>
<path class="st0" d="M20,27.7"/>
<path class="st0" d="M12.9,23"/>
<path class="st0" d="M16.1,36.1"/>
<path class="st0" d="M7.2,34.3"/>
<path class="st0" d="M37.9,16"/>
<path class="st0" d="M36.9,8"/>
<path class="st0" d="M33.5,17.1"/>
<path class="st0" d="M31.2,9.3"/>
<path class="st0" d="M22.7,24.7"/>
<path class="st0" d="M15.8,18.7"/>
<path class="st1" d="M7.7,42c0-18,16.8-32.6,31.8-32.6"/>
<path class="st2" d="M39.5,14.9"/>
<path class="st2" d="M13.5,42"/>
<path class="st3" d="M38.5,5.4"/>
<path class="st3" d="M41.8,7.1"/>
<path class="st3" d="M38.5,5.4"/>
<path class="st3" d="M35.6,17.9"/>
<path class="st3" d="M38.8,19.3"/>
<path class="st3" d="M41.8,17.7"/>
<line class="st4" x1="37.5" y1="38.5" x2="17.4" y2="19.8"/>
<path class="st5" d="M38.8,26.8"/>
<polyline class="st6" points="38,34 38,39 33,39 "/>
</svg>
