<?xml version="1.0" encoding="utf-8"?>
<!-- Generator: Adobe Illustrator 22.1.0, SVG Export Plug-In . SVG Version: 6.00 Build 0)  -->
<svg version="1.1" id="Layer_1" xmlns="http://www.w3.org/2000/svg" xmlns:xlink="http://www.w3.org/1999/xlink" x="0px" y="0px"
	 viewBox="0 0 48 48" style="enable-background:new 0 0 48 48;" xml:space="preserve">
<style type="text/css">
	.st0{fill:none;stroke:#FBB03B;stroke-width:2;stroke-miterlimit:10;}
	.st1{fill:none;stroke:#000000;stroke-miterlimit:10;}
	.st2{fill:none;stroke:#FC1500;stroke-miterlimit:10;}
	.st3{fill:none;stroke:#FC1500;stroke-width:2;stroke-miterlimit:10;}
	.st4{fill:none;stroke:#FC1500;stroke-width:2;stroke-linecap:round;stroke-miterlimit:10;}
</style>
<line class="st0" x1="15.3" y1="19.3" x2="22.8" y2="24.8"/>
<line class="st0" x1="6.4" y1="40.3" x2="15.3" y2="40.7"/>
<line class="st0" x1="25" y1="12" x2="29.7" y2="19.3"/>
<line class="st0" x1="9.1" y1="28.5" x2="17.8" y2="31.7"/>
<line class="st0" x1="30.7" y1="9.3" x2="33.9" y2="17"/>
<line class="st0" x1="19.6" y1="15.3" x2="25.7" y2="22"/>
<line class="st0" x1="12" y1="23.4" x2="20.1" y2="27.7"/>
<line class="st0" x1="7.2" y1="34.3" x2="16.1" y2="36.1"/>
<path class="st1" d="M7.7,42c0-18,16.8-32.6,31.8-32.6"/>
<path class="st1" d="M13.5,42c0-13.1,13.6-27.1,26-27.1"/>
<path class="st2" d="M38.5,5.4"/>
<path class="st2" d="M41.8,7.1"/>
<path class="st2" d="M38.5,5.4"/>
<line class="st3" x1="38.8" y1="19.3" x2="38.5" y2="5.4"/>
<path class="st2" d="M35.6,17.9"/>
<path class="st2" d="M38.8,19.3"/>
<path class="st2" d="M41.8,17.7"/>
<polyline class="st4" points="35.6,7.8 38.5,5.4 41.4,7.8 "/>
<polyline class="st4" points="41.4,17 38.8,19.1 35.6,17 "/>
</svg>
