<?xml version="1.0" encoding="utf-8"?>
<!-- Generator: Adobe Illustrator 22.1.0, SVG Export Plug-In . SVG Version: 6.00 Build 0)  -->
<svg version="1.1" id="Layer_1" xmlns="http://www.w3.org/2000/svg" xmlns:xlink="http://www.w3.org/1999/xlink" x="0px" y="0px"
	 viewBox="0 0 48 48" style="enable-background:new 0 0 48 48;" xml:space="preserve">
<style type="text/css">
	.st0{fill:none;stroke:#FBB03B;stroke-width:2;stroke-miterlimit:10;}
	.st1{fill:none;stroke:#000000;stroke-miterlimit:10;}
	.st2{fill:none;stroke:#FC1500;stroke-miterlimit:10;}
	.st3{fill:#BF8700;stroke:#FF0000;stroke-width:2;stroke-miterlimit:10;}
	.st4{fill:none;stroke:#FF0000;stroke-miterlimit:10;}
	.st5{fill:none;stroke:#FF0000;stroke-width:2;stroke-linecap:round;stroke-miterlimit:10;}
</style>
<line class="st0" x1="6.4" y1="40.3" x2="15.3" y2="40.7"/>
<line class="st0" x1="25.7" y1="11.6" x2="29.7" y2="19.3"/>
<line class="st0" x1="9.7" y1="27.9" x2="17.4" y2="31.7"/>
<line class="st0" x1="20" y1="14.9" x2="25.4" y2="21.7"/>
<line class="st0" x1="12.9" y1="23" x2="20" y2="27.7"/>
<line class="st0" x1="7.2" y1="34.3" x2="16.1" y2="36.1"/>
<line class="st0" x1="36.9" y1="8" x2="37.9" y2="16"/>
<line class="st0" x1="31.2" y1="9.3" x2="33.5" y2="17.1"/>
<line class="st0" x1="15.8" y1="18.7" x2="22.7" y2="24.7"/>
<path class="st1" d="M7.7,42c0-18,16.8-32.6,31.8-32.6"/>
<path class="st1" d="M13.5,42c0-13.1,13.6-27.1,26-27.1"/>
<path class="st2" d="M38.5,5.4"/>
<path class="st2" d="M41.8,7.1"/>
<path class="st2" d="M38.5,5.4"/>
<path class="st2" d="M35.6,17.9"/>
<path class="st2" d="M38.8,19.3"/>
<path class="st2" d="M41.8,17.7"/>
<line class="st3" x1="39.5" y1="40.5" x2="20" y2="22"/>
<path class="st4" d="M38.8,26.8"/>
<polyline class="st5" points="40,36 40,41 35,41 "/>
</svg>
