<?xml version="1.0" encoding="utf-8"?>
<!-- Generator: Adobe Illustrator 22.1.0, SVG Export Plug-In . SVG Version: 6.00 Build 0)  -->
<svg version="1.1" id="Layer_1" xmlns="http://www.w3.org/2000/svg" xmlns:xlink="http://www.w3.org/1999/xlink" x="0px" y="0px"
	 viewBox="0 0 48 48" style="enable-background:new 0 0 48 48;" xml:space="preserve">
<style type="text/css">
	.st0{fill:none;stroke:#FBB03B;stroke-width:2;stroke-miterlimit:10;}
	.st1{fill:none;stroke:#000000;stroke-width:2;stroke-miterlimit:10;}
	.st2{fill:none;stroke:#000000;stroke-miterlimit:10;}
	.st3{fill:none;stroke:#FC1500;stroke-miterlimit:10;}
	.st4{fill:none;stroke:#FC1500;stroke-width:2;stroke-miterlimit:10;}
	.st5{fill:none;stroke:#FC1500;stroke-width:2;stroke-linecap:round;stroke-miterlimit:10;}
</style>
<path class="st0" d="M22.8,24.8"/>
<path class="st0" d="M15.3,19.3"/>
<path class="st0" d="M15.3,40.7"/>
<path class="st0" d="M6.4,40.3"/>
<path class="st0" d="M29.7,19.3"/>
<path class="st0" d="M25,12"/>
<path class="st0" d="M17.8,31.7"/>
<path class="st0" d="M9.1,28.5"/>
<path class="st0" d="M33.9,17"/>
<path class="st0" d="M30.7,9.3"/>
<path class="st0" d="M25.7,22"/>
<path class="st0" d="M19.6,15.3"/>
<path class="st0" d="M20.1,27.7"/>
<path class="st0" d="M12,23.4"/>
<path class="st0" d="M16.1,36.1"/>
<path class="st0" d="M7.2,34.3"/>
<path class="st1" d="M8.1,40.7C8.1,21,23.7,12,38.8,12"/>
<path class="st2" d="M39.5,14.9"/>
<path class="st2" d="M13.5,42"/>
<path class="st3" d="M38.5,5.4"/>
<path class="st3" d="M41.8,7.1"/>
<path class="st3" d="M38.5,5.4"/>
<line class="st4" x1="38.8" y1="19.3" x2="38.5" y2="5.4"/>
<path class="st3" d="M35.6,17.9"/>
<path class="st3" d="M38.8,19.3"/>
<path class="st3" d="M41.8,17.7"/>
<polyline class="st5" points="35.6,7.8 38.5,5.4 41.4,7.8 "/>
<polyline class="st5" points="41.4,17 38.8,19.1 35.6,17 "/>
</svg>
