<?xml version="1.0" encoding="utf-8"?>
<!-- Generator: Adobe Illustrator 22.1.0, SVG Export Plug-In . SVG Version: 6.00 Build 0)  -->
<svg version="1.1" id="Layer_1" xmlns="http://www.w3.org/2000/svg" xmlns:xlink="http://www.w3.org/1999/xlink" x="0px" y="0px"
	 viewBox="0 0 48 48" style="enable-background:new 0 0 48 48;" xml:space="preserve">
<style type="text/css">
	.st0{fill:none;stroke:#FBB03B;stroke-width:2;stroke-miterlimit:10;}
	.st1{fill:none;stroke:#000000;stroke-miterlimit:10;}
	.st2{fill:none;stroke:#FB0000;stroke-width:2;stroke-miterlimit:10;}
	.st3{fill:none;stroke:#FB0000;stroke-miterlimit:10;}
	.st4{fill:none;stroke:#FB0000;stroke-width:2;stroke-linecap:round;stroke-miterlimit:10;}
	.st5{fill:none;stroke:#FB0000;stroke-width:2;stroke-linecap:square;stroke-linejoin:round;stroke-miterlimit:10;}
</style>
<line class="st0" x1="8" y1="16" x2="8" y2="27"/>
<line class="st0" x1="13" y1="16" x2="13" y2="27"/>
<line class="st0" x1="18" y1="16" x2="18" y2="27"/>
<line class="st0" x1="23" y1="16" x2="23" y2="27"/>
<line class="st0" x1="28" y1="16" x2="28" y2="27"/>
<line class="st0" x1="33" y1="16" x2="33" y2="27"/>
<line class="st0" x1="38" y1="16" x2="38" y2="27"/>
<line class="st1" x1="6" y1="17.5" x2="40" y2="17.5"/>
<line class="st1" x1="6" y1="25.5" x2="40" y2="25.5"/>
<path class="st2" d="M37.4,32.9"/>
<path class="st2" d="M25.1,21"/>
<path class="st3" d="M24.7,31.7"/>
<path class="st4" d="M19.9,15.7c-0.8-4,7.7-4.6,7.7-0.4c0,3.9-1.7,5.6-4.1,5.7l0,7.5"/>
<rect x="23" y="32" class="st5" width="1" height="1.1"/>
</svg>
