<?xml version="1.0" encoding="utf-8"?>
<!-- Generator: Adobe Illustrator 22.1.0, SVG Export Plug-In . SVG Version: 6.00 Build 0)  -->
<svg version="1.1" id="Layer_1" xmlns="http://www.w3.org/2000/svg" xmlns:xlink="http://www.w3.org/1999/xlink" x="0px" y="0px"
	 viewBox="0 0 96 48" style="enable-background:new 0 0 96 48;" xml:space="preserve">
<style type="text/css">
	.st0{fill:none;stroke:#F7931E;stroke-miterlimit:10;}
	.st1{fill:#0090FC;stroke:#000000;stroke-width:0.5;stroke-miterlimit:10;}
	.st2{font-family:'MyriadPro-Regular';}
	.st3{font-size:14px;}
	.st4{fill:none;stroke:#000000;stroke-width:0.5;stroke-miterlimit:10;}
</style>
<path class="st0" d="M13.2,28.5c-0.8,0.4-1.1,1.3-0.7,2.1c0.5,1,1.7,1.4,2.7,0.9c1.2-0.6,1.7-2.1,1.1-3.3c-0.8-1.5-2.6-2.1-4.2-1.4
	c-1.9,1-2.7,3.3-1.7,5.2c1.2,2.4,4.1,3.3,6.5,2.1c3-1.5,4.2-5.1,2.7-8.1c-1.9-3.7-6.4-5.2-10.1-3.3c-4.7,2.3-6.5,9-4.2,13.7
	c2.9,5.8,10.6,5.4,15.9,4.2c4.1-1.1,22.6-6.1,22.6-6.1l8.1-2.4c0,0,18-5.1,22.1-6.4c5.2-1.5,12.9-1.3,16.1,4.4
	c2.6,4.5,1,10.3-3.5,12.9c-3.6,2.1-8.2,0.8-10.3-2.8c-1.7-2.9-0.6-6.6,2.3-8.2c2.3-1.3,5.3-0.5,6.6,1.8c1.1,1.9,0.4,4.2-1.4,5.3
	c-1.5,0.8-3.4,0.3-4.2-1.2c-0.7-1.2-0.3-2.7,0.9-3.4c0.9-0.5,2.2-0.2,2.7,0.7c0.4,0.8,0.2,1.7-0.6,2.2"/>
<text transform="matrix(1.4084 0 0 1 7.2197 19.25)"><tspan x="0" y="0" class="st1 st2 st3">Easement </tspan><tspan x="10.7" y="16.8" class="st1 st2 st3">Cornu</tspan></text>
<path class="st4" d="M73.8,28.6"/>
</svg>
