<?xml version="1.0" encoding="utf-8"?>
<!-- Generator: Adobe Illustrator 22.1.0, SVG Export Plug-In . SVG Version: 6.00 Build 0)  -->
<svg version="1.1" id="Layer_1" xmlns="http://www.w3.org/2000/svg" xmlns:xlink="http://www.w3.org/1999/xlink" x="0px" y="0px"
	 viewBox="0 0 48 48" style="enable-background:new 0 0 48 48;" xml:space="preserve">
<style type="text/css">
	.st0{fill:none;stroke:#6AC2FF;stroke-width:2;stroke-miterlimit:10;}
	.st1{fill:none;stroke:#CCCCCC;stroke-width:2;stroke-miterlimit:10;}
	.st2{fill:none;stroke:#666666;stroke-miterlimit:10;}
	.st3{fill:none;stroke:#2A73FF;stroke-miterlimit:10;}
	.st4{fill:none;stroke:#005EFF;stroke-miterlimit:10;}
	.st5{fill:none;stroke:#FF3515;stroke-width:2;stroke-miterlimit:10;}
	.st6{fill:none;stroke:#FF3515;stroke-width:2;stroke-linecap:round;stroke-miterlimit:10;}
</style>
<line class="st0" x1="10.8" y1="43.4" x2="10" y2="35"/>
<line class="st0" x1="32.5" y1="32" x2="25.1" y2="26.6"/>
<line class="st1" x1="41.5" y1="11.1" x2="32.5" y2="10.6"/>
<line class="st0" x1="22.8" y1="39.4" x2="18.2" y2="32"/>
<line class="st1" x1="38.8" y1="22.9" x2="30" y2="19.7"/>
<line class="st0" x1="17.5" y1="42" x2="14.4" y2="34.1"/>
<line class="st0" x1="28.2" y1="36.4" x2="22.1" y2="29.3"/>
<line class="st1" x1="35.8" y1="28" x2="27.8" y2="23.6"/>
<line class="st1" x1="40.7" y1="17.1" x2="31.8" y2="15.2"/>
<path class="st2" d="M40.2,9.4c0,7.6-3,14.6-7.6,20.2C26.3,37.1,17,42,8.4,42"/>
<path class="st3" d="M27.4,26.3c-5.1,6-12.2,10.2-19,10.2"/>
<path class="st2" d="M34.3,9.3c-0.3,6.4-2.2,11.1-7,16.9"/>
<path class="st4" d="M32.6,29.5C26.3,37.1,17,42,8.4,42"/>
<path class="st5" d="M29.3,29.3c5-5.7,8.2-15.3,8.2-22.1"/>
<polyline class="st6" points="33.8,8.5 37.6,6.4 40.7,8.5 "/>
</svg>
