<?xml version="1.0" encoding="utf-8"?>
<!-- Generator: Adobe Illustrator 22.1.0, SVG Export Plug-In . SVG Version: 6.00 Build 0)  -->
<svg version="1.1" id="Layer_1" xmlns="http://www.w3.org/2000/svg" xmlns:xlink="http://www.w3.org/1999/xlink" x="0px" y="0px"
	 viewBox="0 0 24 24" style="enable-background:new 0 0 24 24;" xml:space="preserve">
<style type="text/css">
	.st0{fill:#FFFFFF;stroke:#005CFE;stroke-miterlimit:10;}
	.st1{fill:#00BEFC;stroke:#005CFE;stroke-width:2;stroke-miterlimit:10;}
	.st2{fill:#00AFFD;stroke:#005CFE;stroke-width:2;stroke-linecap:round;stroke-miterlimit:10;}
</style>
<ellipse transform="matrix(3.564634e-02 -0.9994 0.9994 3.564634e-02 -0.2243 24.1493)" class="st0" cx="12.4" cy="12.2" rx="9.4" ry="9.4"/>
<path class="st1" d="M13.5,17.8c0,0.5-0.4,1-1,1c-0.5,0-1-0.4-1-1s0.4-1,1-1C13,16.9,13.5,17.3,13.5,17.8z"/>
<path class="st2" d="M12.5,12.7c0,0-0.8-1.3-0.8-2.4c0-1.2,0.7-2.5,0.7-2.5S13,9.3,13,10.2C13,11.4,12.5,12.7,12.5,12.7z"/>
</svg>
