<?xml version="1.0" encoding="utf-8"?>
<!-- Generator: Adobe Illustrator 22.1.0, SVG Export Plug-In . SVG Version: 6.00 Build 0)  -->
<svg version="1.1" id="Layer_1" xmlns="http://www.w3.org/2000/svg" xmlns:xlink="http://www.w3.org/1999/xlink" x="0px" y="0px"
	 viewBox="0 0 48 48" style="enable-background:new 0 0 48 48;" xml:space="preserve">
<style type="text/css">
	.st0{fill:none;stroke:#FBB03B;stroke-width:2;stroke-miterlimit:10;}
	.st1{fill:none;stroke:#CCCCCC;stroke-width:2;stroke-miterlimit:10;}
	.st2{fill:none;stroke:#B3B3B3;stroke-width:2;stroke-miterlimit:10;}
	.st3{fill:none;stroke:#000000;stroke-miterlimit:10;}
	.st4{fill:none;stroke:#808080;stroke-linecap:round;stroke-miterlimit:10;}
	.st5{fill:none;stroke:#FF3515;stroke-width:2;stroke-miterlimit:10;}
	.st6{fill:none;stroke:#FF3515;stroke-width:2;stroke-linecap:round;stroke-miterlimit:10;}
</style>
<line class="st0" x1="10.4" y1="43.4" x2="10" y2="35"/>
<line class="st1" x1="31.8" y1="33.3" x2="25" y2="26.9"/>
<line class="st0" x1="41.5" y1="11.1" x2="33.1" y2="10.6"/>
<path class="st2" d="M18.2,32"/>
<path class="st2" d="M22.8,39.4"/>
<path class="st2" d="M30,19.7"/>
<path class="st2" d="M38.8,22.9"/>
<line class="st0" x1="17.1" y1="42.4" x2="14.4" y2="34.1"/>
<line class="st1" x1="26.8" y1="37.1" x2="21.5" y2="29.9"/>
<line class="st1" x1="35.4" y1="28.4" x2="27.8" y2="23.6"/>
<line class="st0" x1="40.7" y1="17.1" x2="31.8" y2="15.2"/>
<path class="st3" d="M40.2,9.4c-0.2,3.8-1,9-2.9,12.9"/>
<path class="st3" d="M19,33.3c-3.4,2-7.1,3.1-10.6,3.1"/>
<path class="st3" d="M34.3,9.3c0.1,3.6-0.9,7.7-2.5,11"/>
<path class="st3" d="M22.1,38.2C17.7,40.6,12.9,42,8.4,42"/>
<path class="st4" d="M37.2,22.3c-2.4,5.2-10,12.7-16.1,16.5"/>
<path class="st4" d="M18,46.5"/>
<path class="st4" d="M20,46.5"/>
<path class="st4" d="M32,19.9c-2.4,5.2-9.2,11.4-14,14"/>
<path class="st5" d="M18,37.1c7-3,14-10.3,16.9-16.5"/>
<polyline class="st6" points="30.9,20.2 35.2,19.9 37.1,23.2 "/>
<polyline class="st6" points="21.8,39.1 18,37 18.4,33.2 "/>
</svg>
