<?xml version="1.0" encoding="utf-8"?>
<!-- Generator: Adobe Illustrator 22.1.0, SVG Export Plug-In . SVG Version: 6.00 Build 0)  -->
<svg version="1.1" id="Layer_1" xmlns="http://www.w3.org/2000/svg" xmlns:xlink="http://www.w3.org/1999/xlink" x="0px" y="0px"
	 viewBox="0 0 48 48" style="enable-background:new 0 0 48 48;" xml:space="preserve">
<style type="text/css">
	.st0{fill:none;stroke:#CCCCCC;stroke-width:2;stroke-miterlimit:10;}
	.st1{fill:none;stroke:#00FFFF;stroke-width:2;stroke-miterlimit:10;}
	.st2{fill:none;stroke:#808080;stroke-miterlimit:10;}
	.st3{fill:none;stroke:#FB0000;stroke-width:2;stroke-miterlimit:10;}
	.st4{fill:none;stroke:#808080;stroke-width:2;stroke-miterlimit:10;}
	.st5{fill:none;stroke:#FB0000;stroke-miterlimit:10;}
	.st6{fill:none;stroke:#007CBF;stroke-miterlimit:10;}
	.st7{fill:none;stroke:#007CBF;stroke-width:2;stroke-miterlimit:10;}
	.st8{fill:none;stroke:#FF0B00;stroke-width:2;stroke-linecap:round;stroke-miterlimit:10;}
</style>
<line class="st0" x1="40" y1="8" x2="29" y2="8"/>
<line class="st0" x1="40" y1="13" x2="29" y2="13"/>
<line class="st0" x1="40" y1="18" x2="29" y2="18"/>
<line class="st0" x1="40" y1="23" x2="29" y2="23"/>
<line class="st0" x1="40" y1="28" x2="29" y2="28"/>
<line class="st0" x1="40" y1="33" x2="29" y2="33"/>
<line class="st0" x1="40" y1="38" x2="29" y2="38"/>
<line class="st1" x1="19" y1="8" x2="8" y2="8"/>
<line class="st1" x1="19" y1="13" x2="8" y2="13"/>
<line class="st1" x1="19" y1="18" x2="8" y2="18"/>
<line class="st1" x1="19" y1="23" x2="8" y2="23"/>
<line class="st1" x1="19" y1="28" x2="8" y2="28"/>
<line class="st1" x1="19" y1="33" x2="8" y2="33"/>
<line class="st1" x1="19" y1="38" x2="8" y2="38"/>
<line class="st2" x1="38.5" y1="6" x2="38.5" y2="40"/>
<line class="st2" x1="30.5" y1="6" x2="30.5" y2="40"/>
<path class="st3" d="M37.4,33.9"/>
<path class="st4" d="M35.5,23.6"/>
<path class="st5" d="M24.7,32.7"/>
<line class="st6" x1="17.5" y1="6" x2="17.5" y2="40"/>
<line class="st6" x1="9.5" y1="6" x2="9.5" y2="40"/>
<path class="st7" d="M14.5,23.6"/>
<line class="st8" x1="14" y1="23" x2="34" y2="23"/>
<polyline class="st8" points="30.5,18.7 34,23 30.5,27.2 "/>
</svg>
