<?xml version="1.0" encoding="utf-8"?>
<!-- Generator: Adobe Illustrator 22.1.0, SVG Export Plug-In . SVG Version: 6.00 Build 0)  -->
<svg version="1.1" id="Layer_1" xmlns="http://www.w3.org/2000/svg" xmlns:xlink="http://www.w3.org/1999/xlink" x="0px" y="0px"
	 viewBox="0 0 48 48" style="enable-background:new 0 0 48 48;" xml:space="preserve">
<style type="text/css">
	.st0{fill:none;stroke:#FBB03B;stroke-width:2;stroke-miterlimit:10;}
	.st1{fill:none;stroke:#B3B3B3;stroke-width:2;stroke-miterlimit:10;}
	.st2{fill:none;stroke:#000000;stroke-miterlimit:10;}
	.st3{fill:none;stroke:#666666;stroke-miterlimit:10;}
	.st4{fill:none;stroke:#666666;stroke-width:2;stroke-linecap:round;stroke-miterlimit:10;}
	.st5{fill:none;stroke:#666666;stroke-width:2;stroke-miterlimit:10;}
</style>
<line class="st0" x1="8" y1="30" x2="8" y2="41"/>
<line class="st0" x1="13" y1="30" x2="13" y2="41"/>
<line class="st0" x1="18" y1="30" x2="18" y2="41"/>
<line class="st0" x1="23" y1="30" x2="23" y2="41"/>
<line class="st0" x1="28" y1="30" x2="28" y2="41"/>
<line class="st0" x1="33" y1="30" x2="33" y2="41"/>
<line class="st0" x1="38" y1="30" x2="38" y2="41"/>
<line class="st1" x1="8" y1="7" x2="8" y2="18"/>
<line class="st1" x1="13" y1="7" x2="13" y2="18"/>
<line class="st1" x1="18" y1="7" x2="18" y2="18"/>
<line class="st1" x1="23" y1="7" x2="23" y2="18"/>
<line class="st1" x1="28" y1="7" x2="28" y2="18"/>
<line class="st1" x1="33" y1="7" x2="33" y2="18"/>
<line class="st1" x1="38" y1="7" x2="38" y2="18"/>
<line class="st2" x1="6" y1="31.5" x2="40" y2="31.5"/>
<line class="st2" x1="6" y1="39.5" x2="40" y2="39.5"/>
<line class="st3" x1="6" y1="8.5" x2="40" y2="8.5"/>
<line class="st3" x1="6" y1="16.5" x2="40" y2="16.5"/>
<polyline class="st4" points="21.5,22 25.1,19 29,22 "/>
<line class="st5" x1="25.3" y1="29" x2="25.1" y2="19"/>
</svg>
