<?xml version="1.0" encoding="utf-8"?>
<!-- Generator: Adobe Illustrator 22.1.0, SVG Export Plug-In . SVG Version: 6.00 Build 0)  -->
<svg version="1.1" id="Layer_1" xmlns="http://www.w3.org/2000/svg" xmlns:xlink="http://www.w3.org/1999/xlink" x="0px" y="0px"
	 viewBox="0 0 48 48" style="enable-background:new 0 0 48 48;" xml:space="preserve">
<style type="text/css">
	.st0{fill:none;stroke:#000000;stroke-miterlimit:10;}
	.st1{fill:#0080FA;}
	.st2{fill:none;stroke:#000402;stroke-miterlimit:10;}
</style>
<line class="st0" x1="9" y1="38.5" x2="41" y2="38.5"/>
<line class="st0" x1="8.5" y1="39" x2="8.5" y2="12"/>
<line class="st0" x1="40.5" y1="18" x2="40.5" y2="39"/>
<line class="st0" x1="45.5" y1="29" x2="45.5" y2="29"/>
<polygon class="st1" points="40,38 40,18 30.3,16 20.7,21.2 14.4,10 12,10 9,12 9,38 "/>
<line class="st2" x1="19.5" y1="39" x2="19.5" y2="40"/>
<line class="st2" x1="25.5" y1="39" x2="25.5" y2="41"/>
<line class="st2" x1="32.5" y1="39" x2="32.5" y2="40"/>
<line class="st2" x1="38.5" y1="39" x2="38.5" y2="41"/>
<line class="st2" x1="13.5" y1="39" x2="13.5" y2="41"/>
<line class="st2" x1="8" y1="26.5" x2="6" y2="26.5"/>
<line class="st2" x1="8" y1="18.5" x2="6" y2="18.5"/>
<line class="st2" x1="8" y1="33.5" x2="6" y2="33.5"/>
<line class="st2" x1="40" y1="26.5" x2="43" y2="26.5"/>
<line class="st2" x1="40" y1="18.5" x2="43" y2="18.5"/>
<line class="st2" x1="40" y1="33.5" x2="43" y2="33.5"/>
</svg>
