<?xml version="1.0" encoding="utf-8"?>
<!-- Generator: Adobe Illustrator 22.1.0, SVG Export Plug-In . SVG Version: 6.00 Build 0)  -->
<svg version="1.1" id="Layer_1" xmlns="http://www.w3.org/2000/svg" xmlns:xlink="http://www.w3.org/1999/xlink" x="0px" y="0px"
	 viewBox="0 0 48 48" style="enable-background:new 0 0 48 48;" xml:space="preserve">
<style type="text/css">
	.st0{fill:none;stroke:#00FFFF;stroke-width:2;stroke-miterlimit:10;}
	.st1{fill:none;stroke:#B3B3B3;stroke-width:2;stroke-miterlimit:10;}
	.st2{fill:none;stroke:#808080;stroke-miterlimit:10;}
	.st3{fill:none;stroke:#FB0000;stroke-width:2;stroke-miterlimit:10;}
	.st4{fill:none;stroke:#808080;stroke-width:2;stroke-miterlimit:10;}
	.st5{fill:none;stroke:#FB0000;stroke-miterlimit:10;}
	.st6{fill:none;stroke:#007CBF;stroke-miterlimit:10;}
	.st7{fill:none;stroke:#007CBF;stroke-width:2;stroke-miterlimit:10;}
	.st8{fill:none;stroke:#FF0B00;stroke-miterlimit:10;}
	.st9{fill:none;stroke:#FF0B00;stroke-miterlimit:10;stroke-dasharray:3.0709,1.0236;}
</style>
<line class="st0" x1="17" y1="32" x2="6" y2="32"/>
<line class="st0" x1="17" y1="37" x2="6" y2="37"/>
<line class="st1" x1="11" y1="31" x2="11" y2="42"/>
<line class="st1" x1="16" y1="31" x2="16" y2="42"/>
<line class="st1" x1="21" y1="31" x2="21" y2="42"/>
<line class="st1" x1="26" y1="31" x2="26" y2="42"/>
<line class="st1" x1="31" y1="31" x2="31" y2="42"/>
<line class="st1" x1="36" y1="31" x2="36" y2="42"/>
<line class="st1" x1="41" y1="31" x2="41" y2="42"/>
<line class="st0" x1="17" y1="7" x2="6" y2="7"/>
<line class="st0" x1="17" y1="12" x2="6" y2="12"/>
<line class="st0" x1="17" y1="17" x2="6" y2="17"/>
<line class="st0" x1="17" y1="22" x2="6" y2="22"/>
<line class="st0" x1="17" y1="27" x2="6" y2="27"/>
<line class="st2" x1="10" y1="32.5" x2="44" y2="32.5"/>
<line class="st2" x1="10" y1="40.5" x2="44" y2="40.5"/>
<path class="st3" d="M38.4,33.1"/>
<path class="st4" d="M28.1,35"/>
<path class="st5" d="M22.7,31.7"/>
<line class="st6" x1="15.5" y1="5" x2="15.5" y2="39"/>
<line class="st6" x1="7.5" y1="5" x2="7.5" y2="39"/>
<path class="st7" d="M12.5,22.6"/>
<polyline class="st8" points="41.5,29.4 38.7,32.7 35.5,30.3 "/>
<g>
	<g>
		<line class="st8" x1="13.6" y1="35" x2="14.8" y2="34.1"/>
		<line class="st9" x1="15.6" y1="33.4" x2="31.1" y2="20.9"/>
		<line class="st8" x1="31.5" y1="20.6" x2="32.7" y2="19.6"/>
	</g>
</g>
<path class="st8" d="M38.5,32.6c0-11.7-10-21.1-22.4-21.1"/>
</svg>
