<?xml version="1.0" encoding="utf-8"?>
<!-- Generator: Adobe Illustrator 22.1.0, SVG Export Plug-In . SVG Version: 6.00 Build 0)  -->
<svg version="1.1" id="Layer_1" xmlns="http://www.w3.org/2000/svg" xmlns:xlink="http://www.w3.org/1999/xlink" x="0px" y="0px"
	 viewBox="0 0 48 48" style="enable-background:new 0 0 48 48;" xml:space="preserve">
<style type="text/css">
	.st0{fill:#FFFFFF;stroke:#000000;stroke-miterlimit:10;}
	.st1{fill:none;}
	.st2{fill:#231F20;}
</style>
<path class="st0" d="M12.1,9.6c0,1.4-1.1,2.6-2.6,2.6C8.1,12.2,7,11.1,7,9.6c0-1.4,1.1-2.6,2.6-2.6C10.9,7.1,12.1,8.2,12.1,9.6z"/>
<path class="st0" d="M22.1,9.6c0,1.4-1.1,2.6-2.6,2.6c-1.4,0-2.6-1.1-2.6-2.6c0-1.4,1.1-2.6,2.6-2.6C20.9,7.1,22.1,8.2,22.1,9.6z"/>
<path class="st0" d="M32.1,9.6c0,1.4-1.1,2.6-2.6,2.6c-1.4,0-2.6-1.1-2.6-2.6c0-1.4,1.1-2.6,2.6-2.6C30.9,7.1,32.1,8.2,32.1,9.6z"/>
<path class="st0" d="M42.1,9.6c0,1.4-1.1,2.6-2.6,2.6c-1.4,0-2.6-1.1-2.6-2.6c0-1.4,1.1-2.6,2.6-2.6C40.9,7.1,42.1,8.2,42.1,9.6z"/>
<path class="st0" d="M12.1,37.6c0,1.4-1.1,2.6-2.6,2.6c-1.4,0-2.6-1.1-2.6-2.6c0-1.4,1.1-2.6,2.6-2.6C10.9,35.1,12.1,36.2,12.1,37.6
	z"/>
<path class="st0" d="M22.1,37.6c0,1.4-1.1,2.6-2.6,2.6c-1.4,0-2.6-1.1-2.6-2.6c0-1.4,1.1-2.6,2.6-2.6C20.9,35.1,22.1,36.2,22.1,37.6
	z"/>
<path class="st0" d="M32.1,37.6c0,1.4-1.1,2.6-2.6,2.6c-1.4,0-2.6-1.1-2.6-2.6c0-1.4,1.1-2.6,2.6-2.6C30.9,35.1,32.1,36.2,32.1,37.6
	z"/>
<path class="st0" d="M42.1,37.6c0,1.4-1.1,2.6-2.6,2.6c-1.4,0-2.6-1.1-2.6-2.6c0-1.4,1.1-2.6,2.6-2.6C40.9,35.1,42.1,36.2,42.1,37.6
	z"/>
<path class="st0" d="M12.1,37.6c0,1.4-1.1,2.6-2.6,2.6c-1.4,0-2.6-1.1-2.6-2.6c0-1.4,1.1-2.6,2.6-2.6C10.9,35.1,12.1,36.2,12.1,37.6
	z"/>
<path class="st0" d="M22.1,37.6c0,1.4-1.1,2.6-2.6,2.6c-1.4,0-2.6-1.1-2.6-2.6c0-1.4,1.1-2.6,2.6-2.6C20.9,35.1,22.1,36.2,22.1,37.6
	z"/>
<path class="st0" d="M32.1,37.6c0,1.4-1.1,2.6-2.6,2.6c-1.4,0-2.6-1.1-2.6-2.6c0-1.4,1.1-2.6,2.6-2.6C30.9,35.1,32.1,36.2,32.1,37.6
	z"/>
<path class="st0" d="M42.1,37.6c0,1.4-1.1,2.6-2.6,2.6c-1.4,0-2.6-1.1-2.6-2.6c0-1.4,1.1-2.6,2.6-2.6C40.9,35.1,42.1,36.2,42.1,37.6
	z"/>
<path class="st0" d="M12.1,37.6c0,1.4-1.1,2.6-2.6,2.6c-1.4,0-2.6-1.1-2.6-2.6c0-1.4,1.1-2.6,2.6-2.6C10.9,35.1,12.1,36.2,12.1,37.6
	z"/>
<path class="st0" d="M22.1,37.6c0,1.4-1.1,2.6-2.6,2.6c-1.4,0-2.6-1.1-2.6-2.6c0-1.4,1.1-2.6,2.6-2.6C20.9,35.1,22.1,36.2,22.1,37.6
	z"/>
<path class="st0" d="M32.1,37.6c0,1.4-1.1,2.6-2.6,2.6c-1.4,0-2.6-1.1-2.6-2.6c0-1.4,1.1-2.6,2.6-2.6C30.9,35.1,32.1,36.2,32.1,37.6
	z"/>
<path class="st0" d="M42.1,37.6c0,1.4-1.1,2.6-2.6,2.6c-1.4,0-2.6-1.1-2.6-2.6c0-1.4,1.1-2.6,2.6-2.6C40.9,35.1,42.1,36.2,42.1,37.6
	z"/>
<path class="st0" d="M12.1,23.6c0,1.4-1.1,2.6-2.6,2.6c-1.4,0-2.6-1.1-2.6-2.6c0-1.4,1.1-2.6,2.6-2.6C10.9,21.1,12.1,22.2,12.1,23.6
	z"/>
<path class="st0" d="M22.1,23.6c0,1.4-1.1,2.6-2.6,2.6c-1.4,0-2.6-1.1-2.6-2.6c0-1.4,1.1-2.6,2.6-2.6C20.9,21.1,22.1,22.2,22.1,23.6
	z"/>
<path class="st0" d="M32.1,23.6c0,1.4-1.1,2.6-2.6,2.6c-1.4,0-2.6-1.1-2.6-2.6c0-1.4,1.1-2.6,2.6-2.6C30.9,21.1,32.1,22.2,32.1,23.6
	z"/>
<path class="st0" d="M42.1,23.6c0,1.4-1.1,2.6-2.6,2.6c-1.4,0-2.6-1.1-2.6-2.6c0-1.4,1.1-2.6,2.6-2.6C40.9,21.1,42.1,22.2,42.1,23.6
	z"/>
<path class="st0" d="M12.1,23.6c0,1.4-1.1,2.6-2.6,2.6c-1.4,0-2.6-1.1-2.6-2.6c0-1.4,1.1-2.6,2.6-2.6C10.9,21.1,12.1,22.2,12.1,23.6
	z"/>
<path class="st0" d="M22.1,23.6c0,1.4-1.1,2.6-2.6,2.6c-1.4,0-2.6-1.1-2.6-2.6c0-1.4,1.1-2.6,2.6-2.6C20.9,21.1,22.1,22.2,22.1,23.6
	z"/>
<path class="st0" d="M32.1,23.6c0,1.4-1.1,2.6-2.6,2.6c-1.4,0-2.6-1.1-2.6-2.6c0-1.4,1.1-2.6,2.6-2.6C30.9,21.1,32.1,22.2,32.1,23.6
	z"/>
<path class="st0" d="M42.1,23.6c0,1.4-1.1,2.6-2.6,2.6c-1.4,0-2.6-1.1-2.6-2.6c0-1.4,1.1-2.6,2.6-2.6C40.9,21.1,42.1,22.2,42.1,23.6
	z"/>
<path class="st0" d="M12.1,23.6c0,1.4-1.1,2.6-2.6,2.6c-1.4,0-2.6-1.1-2.6-2.6c0-1.4,1.1-2.6,2.6-2.6C10.9,21.1,12.1,22.2,12.1,23.6
	z"/>
<path class="st0" d="M22.1,23.6c0,1.4-1.1,2.6-2.6,2.6c-1.4,0-2.6-1.1-2.6-2.6c0-1.4,1.1-2.6,2.6-2.6C20.9,21.1,22.1,22.2,22.1,23.6
	z"/>
<path class="st0" d="M32.1,23.6c0,1.4-1.1,2.6-2.6,2.6c-1.4,0-2.6-1.1-2.6-2.6c0-1.4,1.1-2.6,2.6-2.6C30.9,21.1,32.1,22.2,32.1,23.6
	z"/>
<path class="st0" d="M42.1,23.6c0,1.4-1.1,2.6-2.6,2.6c-1.4,0-2.6-1.1-2.6-2.6c0-1.4,1.1-2.6,2.6-2.6C40.9,21.1,42.1,22.2,42.1,23.6
	z"/>
<g>
	<rect x="13.8" y="5.4" transform="matrix(0.6644 -0.7474 0.7474 0.6644 -8.6155 24.5992)" class="st1" width="18.6" height="33"/>
	<g>
		<polygon class="st2" points="36.6,31.5 20.6,17.2 25.6,11.7 10.7,10.9 13.2,25.5 18.2,20 34.2,34.2 		"/>
	</g>
</g>
</svg>
