<?xml version="1.0" encoding="utf-8"?>
<!-- Generator: Adobe Illustrator 22.1.0, SVG Export Plug-In . SVG Version: 6.00 Build 0)  -->
<svg version="1.1" id="Layer_1" xmlns="http://www.w3.org/2000/svg" xmlns:xlink="http://www.w3.org/1999/xlink" x="0px" y="0px"
	 viewBox="0 0 48 48" style="enable-background:new 0 0 48 48;" xml:space="preserve">
<style type="text/css">
	.st0{fill:none;stroke:#808080;stroke-width:2;stroke-miterlimit:10;}
	.st1{fill:none;stroke:#000401;stroke-miterlimit:10;}
	.st2{fill:#000401;}
	.st3{fill:url(#SVGID_1_);}
	.st4{fill:none;stroke:#000000;stroke-miterlimit:10;}
	.st5{fill:#006837;}
	.st6{fill:#FFE53F;}
	.st7{font-family:'MyriadPro-Regular';}
	.st8{font-size:6px;}
</style>
<path class="st0" d="M36.6,17.4c-0.3-2.9-10.7-6.9-20.5-8.1c-7.8-1-12.5,0.2-10.4,2.6c1.6,1.9,8.1,4,14.3,4.8c5,0.6,8-0.1,6.7-1.6
	c-1.1-1.2-5.2-2.6-9.2-3.1c-3.2-0.4-5.1,0.1-4.3,1"/>
<polygon points="33,17 39,17 37.9,21.7 37.7,23 35,23 34.6,21.4 "/>
<line class="st1" x1="17.7" y1="19" x2="17.9" y2="23.1"/>
<line class="st1" x1="10.6" y1="17.4" x2="17.7" y2="19.4"/>
<path class="st2" d="M29,24h-3c0,0-0.3-1.5,0-3c0.7-1.6,2.1-1.5,3,0C29.1,23.3,29,24,29,24z"/>
<path class="st2" d="M34.4,31.7c0,1.7-1.4,3.1-3.1,3.1s-3.1-1.4-3.1-3.1c0-1.7,1.4-3.1,3.1-3.1S34.4,30,34.4,31.7z"/>
<path class="st2" d="M27.4,31.7c0,1.7-1.4,3.1-3.1,3.1c-1.7,0-3.1-1.4-3.1-3.1c0-1.7,1.4-3.1,3.1-3.1C26,28.6,27.4,30,27.4,31.7z"/>
<path class="st2" d="M20.4,31.7c0,1.7-1.4,3.1-3.1,3.1s-3.1-1.4-3.1-3.1c0-1.7,1.4-3.1,3.1-3.1S20.4,30,20.4,31.7z"/>
<path class="st2" d="M42,32.7c0,0.9-0.7,1.7-1.7,1.7s-1.7-0.7-1.7-1.7s0.7-1.7,1.7-1.7S42,31.8,42,32.7z"/>
<path class="st0" d="M18.9,29.1"/>
<path class="st0" d="M26.2,29.6"/>
<linearGradient id="SVGID_1_" gradientUnits="userSpaceOnUse" x1="24.5506" y1="21.5" x2="30.4868" y2="21.5" gradientTransform="matrix(0 1 -1 0 50.5 -1.4995)">
	<stop  offset="2.455360e-02" style="stop-color:#006837"/>
	<stop  offset="0.4355" style="stop-color:#22B573"/>
	<stop  offset="1" style="stop-color:#006837"/>
</linearGradient>
<rect x="18" y="23" class="st3" width="22" height="6"/>
<line class="st4" x1="39.4" y1="29" x2="43.4" y2="32.7"/>
<rect x="10" y="23" class="st5" width="8" height="6"/>
<path class="st2" d="M13,32.7c0,0.9-0.7,1.7-1.7,1.7c-0.9,0-1.7-0.7-1.7-1.7s0.7-1.7,1.7-1.7C12.3,31.1,13,31.8,13,32.7z"/>
<text transform="matrix(1 0 0 1 13 28.207)" class="st6 st7 st8">7</text>
<path class="st2" d="M38,32.7c0,0.9-0.7,1.7-1.7,1.7s-1.7-0.7-1.7-1.7s0.7-1.7,1.7-1.7S38,31.8,38,32.7z"/>
</svg>
