<?xml version="1.0" encoding="utf-8"?>
<!-- Generator: Adobe Illustrator 22.1.0, SVG Export Plug-In . SVG Version: 6.00 Build 0)  -->
<svg version="1.1" id="Layer_1" xmlns="http://www.w3.org/2000/svg" xmlns:xlink="http://www.w3.org/1999/xlink" x="0px" y="0px"
	 viewBox="0 0 48 48" style="enable-background:new 0 0 48 48;" xml:space="preserve">
<style type="text/css">
	.st0{fill:none;stroke:#FBB03B;stroke-width:2;stroke-miterlimit:10;}
	.st1{fill:none;stroke:#000000;stroke-miterlimit:10;}
	.st2{stroke:#FFFFFF;stroke-miterlimit:10;}
</style>
<line class="st0" x1="5" y1="22" x2="5" y2="33"/>
<line class="st0" x1="10" y1="22" x2="10" y2="33"/>
<line class="st0" x1="15" y1="21" x2="15" y2="33"/>
<line class="st0" x1="20" y1="19" x2="20" y2="33"/>
<line class="st0" x1="25.3" y1="17.2" x2="25.5" y2="33"/>
<line class="st0" x1="30" y1="15" x2="30" y2="33"/>
<line class="st0" x1="35.3" y1="23.5" x2="35.5" y2="33"/>
<line class="st0" x1="40" y1="22" x2="40" y2="33"/>
<line class="st0" x1="35.5" y1="12.8" x2="40.5" y2="22.3"/>
<line class="st0" x1="35.3" y1="24.4" x2="30.5" y2="15"/>
<line class="st1" x1="3" y1="23.5" x2="43" y2="23.5"/>
<line class="st1" x1="3" y1="31.5" x2="43" y2="31.5"/>
<path class="st1" d="M38.8,12.8l-3.4,1.8c0,0-19.8,8.9-23.8,8.9"/>
<path class="st1" d="M42.6,20L39,22c-5,2.8-23.1,9.5-27.4,9.5"/>
<path class="st1" d="M44.8,20"/>
<path class="st1" d="M39.8,10.8"/>
<path class="st1" d="M36,23.5"/>
<path class="st1" d="M31.6,14.5"/>
<path class="st1" d="M31.1,23.5"/>
<path class="st1" d="M27.6,16.2"/>
<path class="st1" d="M23.7,17.9"/>
<path class="st1" d="M21.1,23.5"/>
<path class="st1" d="M19.6,19.4"/>
<polygon class="st2" points="21.5,39.5 21.5,29.5 17,29.5 18.5,25.5 28.5,25.5 28.5,29.5 24.8,29.5 24.9,39.5 "/>
</svg>
