<?xml version="1.0" encoding="utf-8"?>
<!-- Generator: Adobe Illustrator 22.1.0, SVG Export Plug-In . SVG Version: 6.00 Build 0)  -->
<svg version="1.1" id="Layer_1" xmlns="http://www.w3.org/2000/svg" xmlns:xlink="http://www.w3.org/1999/xlink" x="0px" y="0px"
	 viewBox="0 0 48 48" style="enable-background:new 0 0 48 48;" xml:space="preserve">
<style type="text/css">
	.st0{fill:none;stroke:#FBB03B;stroke-width:2;stroke-miterlimit:10;}
	.st1{fill:none;stroke:#000000;stroke-miterlimit:10;}
</style>
<line class="st0" x1="6" y1="22" x2="6" y2="33"/>
<line class="st0" x1="11" y1="22" x2="11" y2="33"/>
<line class="st0" x1="16" y1="21" x2="16" y2="33"/>
<line class="st0" x1="21" y1="19" x2="21" y2="33"/>
<line class="st0" x1="26.3" y1="17.2" x2="26.5" y2="33"/>
<line class="st0" x1="31" y1="15" x2="31" y2="33"/>
<line class="st0" x1="36.3" y1="23.5" x2="36.5" y2="33"/>
<line class="st0" x1="41" y1="22" x2="41" y2="33"/>
<path class="st1" d="M45.8,20"/>
<path class="st1" d="M40.8,10.8"/>
<line class="st0" x1="36.5" y1="12.8" x2="41.5" y2="22.3"/>
<path class="st1" d="M37,23.5"/>
<path class="st1" d="M32.6,14.5"/>
<path class="st1" d="M32.1,23.5"/>
<path class="st1" d="M28.6,16.2"/>
<path class="st1" d="M24.7,17.9"/>
<path class="st1" d="M22.1,23.5"/>
<path class="st1" d="M20.6,19.4"/>
<line class="st0" x1="36.3" y1="24.4" x2="31.5" y2="15"/>
<line class="st1" x1="5" y1="23.5" x2="44" y2="23.5"/>
<line class="st1" x1="5" y1="31.5" x2="44" y2="31.5"/>
<path class="st1" d="M44,19.7l-3.6,2c-5.1,2.9-23.3,9.8-27.8,9.8"/>
<path class="st1" d="M40.2,12.7l-3.4,1.8c0,0-20.1,9-24.2,9"/>
</svg>
