<?xml version="1.0" encoding="utf-8"?>
<!-- Generator: Adobe Illustrator 22.1.0, SVG Export Plug-In . SVG Version: 6.00 Build 0)  -->
<svg version="1.1" id="Layer_1" xmlns="http://www.w3.org/2000/svg" xmlns:xlink="http://www.w3.org/1999/xlink" x="0px" y="0px"
	 viewBox="0 0 48 48" style="enable-background:new 0 0 48 48;" xml:space="preserve">
<style type="text/css">
	.st0{fill:none;stroke:#FBB03B;stroke-width:2;stroke-miterlimit:10;}
	.st1{fill:#E6E6E6;stroke:#000000;stroke-miterlimit:10;}
	.st2{fill:none;stroke:#000000;stroke-miterlimit:10;}
</style>
<line class="st0" x1="10.9" y1="33.7" x2="17.3" y2="40.1"/>
<line class="st0" x1="12" y1="19" x2="12" y2="28"/>
<line class="st0" x1="8" y1="19" x2="8" y2="28"/>
<line class="st0" x1="21.2" y1="9" x2="14.5" y2="15"/>
<line class="st0" x1="18.5" y1="6" x2="11.8" y2="12"/>
<line class="st0" x1="13.7" y1="30.9" x2="20.1" y2="37.3"/>
<path class="st1" d="M41.6,23.1c0,7.5-6.1,13.9-13.9,13.9c-7.7,0-13.9-6.2-13.9-13.9c0-7.7,6.2-13.9,13.9-13.9
	C35.4,9.3,41.6,15.5,41.6,23.1z"/>
<line class="st2" x1="14" y1="20.5" x2="6" y2="20.5"/>
<line class="st2" x1="14" y1="26.5" x2="6" y2="26.5"/>
<line class="st2" x1="21.1" y1="11.1" x2="15.9" y2="5.3"/>
<line class="st2" x1="16.6" y1="15.1" x2="11.4" y2="9.3"/>
<line class="st2" x1="15.9" y1="30.9" x2="10.4" y2="36.3"/>
<line class="st2" x1="20.1" y1="35.1" x2="14.8" y2="40.4"/>
<line class="st2" x1="23.5" y1="10" x2="23.5" y2="36"/>
<line class="st2" x1="31.5" y1="10" x2="31.5" y2="36"/>
</svg>
