#define arrow3_ctl_width 24
#define arrow3_ctl_height 24
static unsigned char arrow3_ctl_bits[] = {
0x00, 0x00, 0x00, 0x00, 0x00, 0x00, 0x00, 0x00, 0x00, 0x00, 0x00, 0x00, 
0x00, 0x00, 0x00, 0x00, 0x00, 0x00, 0x00, 0x00, 0x00, 0x00, 0x00, 0x00, 
0x00, 0x00, 0x00, 0x00, 0x00, 0x00, 0x00, 0xfc, 0x07, 0x00, 0x04, 0x02, 
0x00, 0x04, 0x01, 0x00, 0x84, 0x00, 0x00, 0xc4, 0x01, 0x00, 0xe4, 0x03, 
0xc0, 0xd4, 0x07, 0x20, 0x8d, 0x0f, 0x20, 0x04, 0x1f, 0x20, 0x00, 0x3e, 
0x20, 0x00, 0x7c, 0x20, 0x01, 0xf8, 0xc0, 0x00, 0x70, 0x00, 0x00, 0x20 };