#define arrowr3_width 24
#define arrowr3_height 24
static unsigned char arrowr3_bits[] = {
0x00, 0x00, 0x00, 0x00, 0x00, 0x00, 0x00, 0x00, 0x00, 0x00, 0x00, 0x00, 
0x00, 0x00, 0x00, 0x00, 0x00, 0x00, 0x00, 0x00, 0x00, 0x00, 0x00, 0x00, 
0x00, 0x00, 0x00, 0x00, 0x00, 0x00, 0xe0, 0x3f, 0x00, 0xc0, 0x3f, 0x00, 
0x80, 0x3f, 0x00, 0x00, 0x3f, 0x00, 0x80, 0x3f, 0x00, 0xc0, 0x3f, 0x00, 
0xe0, 0x3b, 0x00, 0xf0, 0x31, 0x00, 0xf8, 0x20, 0x00, 0x7c, 0x00, 0x00, 
0x3e, 0x00, 0x00, 0x1f, 0x00, 0x00, 0x0e, 0x00, 0x00, 0x04, 0x00, 0x00};