#define arrowr3_shift_width 24
#define arrowr3_shift_height 24
static unsigned char arrowr3_shift_bits[] = {
0x00, 0x00, 0x00, 0x00, 0x00, 0x00, 0x00, 0x00, 0x00, 0x00, 0x00, 0x00, 
0x00, 0x00, 0x00, 0x00, 0x00, 0x00, 0x00, 0x00, 0x00, 0x00, 0x00, 0x00, 
0xf0, 0xff, 0x00, 0x08, 0x80, 0x00, 0xe8, 0xbf, 0x00, 0xd0, 0xbf, 0x00, 
0xa0, 0xbf, 0x00, 0x40, 0xbf, 0x00, 0xa0, 0xbf, 0x00, 0xd0, 0xbf, 0x00, 
0xe8, 0xbb, 0x00, 0xf4, 0xb5, 0x0c, 0xfa, 0xaa, 0x12, 0x7d, 0x91, 0x02, 
0xbe, 0x60, 0x0c, 0x5f, 0x00, 0x10, 0x2e, 0x00, 0x12, 0x15, 0x00, 0x0c};