#define arrowr3_ctl_width 24
#define arrowr3_ctl_height 24
static unsigned char arrowr3_ctl_bits[] = {
0x00, 0x00, 0x00, 0x00, 0x00, 0x00, 0x00, 0x00, 0x00, 0x00, 0x00, 0x00, 
0x00, 0x00, 0x00, 0x00, 0x00, 0x00, 0x00, 0x00, 0x00, 0x00, 0x00, 0x00, 
0x00, 0x00, 0x00, 0x00, 0x00, 0x00, 0xe0, 0x3f, 0x00, 0x40, 0x20, 0x00, 
0x80, 0x20, 0x00, 0x00, 0x21, 0x00, 0x80, 0x23, 0x00, 0xc0, 0x27, 0x00, 
0xe0, 0x2b, 0x00, 0xf0, 0x31, 0x06, 0xf8, 0x20, 0x09, 0x7c, 0x00, 0x01, 
0x3e, 0x00, 0x01, 0x1f, 0x00, 0x09, 0x0e, 0x00, 0x06, 0x04, 0x00, 0x00};