#define arrow0_ctl_width 24
#define arrow0_ctl_height 24
static unsigned char arrow0_ctl_bits[] = {
0x00, 0x00, 0x00, 0x00, 0x00, 0x00, 0x00, 0x00, 0x00, 0x00, 0x00, 0x00, 
0x00, 0x00, 0x00, 0x00, 0x00, 0x00, 0x00, 0x00, 0x00, 0x00, 0x00, 0x00, 
0x00, 0x00, 0x00, 0x00, 0x00, 0x00, 0x00, 0x18, 0x00, 0x00, 0x3c, 0x00, 
0x00, 0x7e, 0x00, 0x00, 0xff, 0x00, 0x80, 0xff, 0x01, 0xc0, 0xff, 0x03, 
0x00, 0x24, 0x00, 0x00, 0x24, 0x06, 0x00, 0x24, 0x09, 0x00, 0x24, 0x01, 
0x00, 0x24, 0x01, 0x00, 0x24, 0x09, 0x00, 0x24, 0x06, 0x00, 0x3c, 0x00};