#define arrow0_shift_width 24
#define arrow0_shift_height 24
static unsigned char arrow0_shift_bits[] = {
0x00, 0x00, 0x00, 0x00, 0x00, 0x00, 0x00, 0x00, 0x00, 0x00, 0x00, 0x00, 
0x00, 0x00, 0x00, 0x00, 0x00, 0x00, 0x00, 0x00, 0x00, 0x00, 0x00, 0x00, 
0x00, 0x18, 0x00, 0x00, 0x24, 0x00, 0x00, 0x5a, 0x00, 0x00, 0xa5, 0x00, 
0x80, 0x42, 0x01, 0x40, 0x81, 0x02, 0xa0, 0x00, 0x05, 0xd0, 0xe7, 0x0b, 
0x10, 0x24, 0x08, 0xe0, 0xa5, 0x67, 0x00, 0xa5, 0x90, 0x00, 0xa5, 0x10, 
0x00, 0xa5, 0x60, 0x00, 0xa5, 0x80, 0x00, 0xa5, 0x90, 0x00, 0xbd, 0x60};