#define arrow3_shift_width 24
#define arrow3_shift_height 24
static unsigned char arrow3_shift_bits[] = {
0x00, 0x00, 0x00, 0x00, 0x00, 0x00, 0x00, 0x00, 0x00, 0x00, 0x00, 0x00, 
0x00, 0x00, 0x00, 0x00, 0x00, 0x00, 0x00, 0x00, 0x00, 0x00, 0x00, 0x00, 
0x00, 0xff, 0x0f, 0x00, 0x01, 0x10, 0x00, 0xfd, 0x17, 0x00, 0xfd, 0x0b, 
0x00, 0xfd, 0x05, 0x00, 0xfd, 0x02, 0x00, 0xfd, 0x05, 0x00, 0xfd, 0x0b, 
0x30, 0xdd, 0x17, 0x48, 0xad, 0x2f, 0x08, 0x55, 0x5f, 0x30, 0x89, 0xbe, 
0x40, 0x06, 0x7d, 0x48, 0x00, 0xfa, 0x30, 0x00, 0x74, 0x00, 0x00, 0xa8};