/* XPM */
static char *background[] = {
/* columns rows colors chars-per-pixel */
"16 16 133 2 ",
"   c #0B2B2B",
".  c #183A3A",
"X  c #789757",
"o  c #799358",
"O  c #7E9068",
"+  c #86A068",
"@  c #9BA77A",
"#  c #99B073",
"$  c #9DB777",
"%  c #98B67E",
"&  c #A6BD7F",
"*  c #A4BE7E",
"=  c #77AAA8",
"-  c #5FA7D7",
";  c #58A1DB",
":  c #59A2DB",
">  c #5AA3DA",
",  c #5BA4DB",
"<  c #5CA4D9",
"1  c #5DA5DB",
"2  c #66ACD3",
"3  c #62A9D5",
"4  c #69AED1",
"5  c #60A9DB",
"6  c #63ACDB",
"7  c #64ACDA",
"8  c #66AFDB",
"9  c #62ACDE",
"0  c #67B0DC",
"q  c #67B0DE",
"w  c #68B1DB",
"e  c #6BB4DB",
"r  c #6EB7DB",
"t  c #6FBADF",
"y  c #71B9DB",
"u  c #71BADB",
"i  c #74BEDE",
"p  c #6FBAE0",
"a  c #6EB9E3",
"s  c #73BEE3",
"d  c #74BEE0",
"f  c #72BEE4",
"g  c #70BCE7",
"h  c #6BBFFF",
"j  c #7CC9E9",
"k  c #7CCAEC",
"l  c #6EC2FF",
"z  c #6FC4FF",
"x  c #73C8FF",
"c  c #74C9FF",
"v  c #78CDFF",
"b  c #79CEFF",
"n  c #7DD2FF",
"m  c #7ED3FF",
"M  c #809786",
"N  c #84AC98",
"B  c #93A492",
"V  c #A1AD8E",
"C  c #A3B587",
"Z  c #A7B787",
"A  c #ABB584",
"S  c #A2B389",
"D  c #A3B988",
"F  c #A8BA94",
"G  c #ACBD97",
"H  c #B5BC90",
"J  c #8EA8A8",
"K  c #97BEAB",
"L  c #8BADB7",
"P  c #80B2B8",
"I  c #91B5B6",
"U  c #AFBFA9",
"Y  c #A4C182",
"T  c #B5C987",
"R  c #B2C088",
"E  c #BAD08E",
"W  c #AFC491",
"Q  c #B6CB97",
"!  c #BED190",
"~  c #AFCEAA",
"^  c #BBCAA0",
"/  c #BECFA1",
"(  c #BDCEA7",
")  c #B5C7A9",
"_  c #BFD0AE",
"`  c #BFD1AF",
"'  c #A8CDBF",
"]  c #C2CC95",
"[  c #C7D798",
"{  c #C3D19D",
"}  c #C6D898",
"|  c #CDD8A6",
" . c #D0DDA6",
".. c #C4DCB6",
"X. c #D3E0A2",
"o. c #D0E4B9",
"O. c #DBE5B9",
"+. c #D9E5BD",
"@. c #E2ECB3",
"#. c #E4EDB0",
"$. c #87B8C5",
"%. c #96CFDB",
"&. c #9CD1D5",
"*. c #98D1DF",
"=. c #A4CDC4",
"-. c #ADD7D0",
";. c #B0D1D5",
":. c #82D6FF",
">. c #83D7FF",
",. c #83D8FF",
"<. c #8CDEFF",
"1. c #95DEFC",
"2. c #99E1F6",
"3. c #A8E4ED",
"4. c #B6E6E2",
"5. c #BDEAE6",
"6. c #ADE7F8",
"7. c #E2EBCA",
"8. c #E2F3F3",
"9. c #E4F4F4",
"0. c #E6F5F5",
"q. c #E9F6F6",
"w. c #EBF7F7",
"e. c #E9F9F9",
"r. c #EEF8F8",
"t. c #F1F9F9",
"y. c #F4FBFB",
"u. c #F7FCFC",
"i. c #F9FDFD",
"p. c #FCFEFE",
"a. c #FEFFFF",
"s. c #FFFFFF",
"d. c None",
/* pixels */
"d.d.d.d.d.d.d.d.d.d.d.d.d.d.d.d.",
"d.s.s.s.s.s.s.s.s.s.s.s.s.s.d.d.",
"d.s.; ; , < 5 6 7 w e r r s.d.d.",
"d.s.; l l 9 x v a m ,.1.k s.d.d.",
"d.i.< z x q b m j ,.3.5.-.i.d.d.",
"d.u.- 7 q g p s %.*.%.=.{ u.d.d.",
"d.y.3 b m t :.5.| @.o...K u.d.d.",
"d.t.2 m :.i 2.#._  .} ! = t.d.d.",
"d.w.4 u i k ' ] / W * $ = w.d.d.",
"d.q.$.<.6.;.7.+.^ ~ D % N q.d.d.",
"d.w.H O. .R T * D _ ) F I q.d.d.",
"d.q.A [ ! # Q ( F F ) V L 0.d.d.",
"d.0.@ Z C S + X o O B M J 0.d.d.",
". e.8.8.8.8.8.8.8.8.8.8.8.e.. d.",
"d.                          d.d.",
"d.d.d.d.d.d.d.d.d.d.d.d.d.d.d.d."
};
