/* XPM */ 
static char * bezier_xpm[] = {
"16 16 4 1",
" 	c None",
"!	c #0000000000",
"#	c #FF00000000",
"$	c #8080800000",
"     ###    !!!!",
"     # #########",
"     ###  !!   !",
"        $!! $!!!",
"       !!$$ !! !",
"      !!  $!$  !",
"  $$ !!  !!  $  ",
"    !!!!!!!     ",
"    !!  ! $$    ",
"  $!!  !!       ",
"!  !$$!!        ",
"! !  $!         ",
"!!!$ !!$        ",
"!   !!  ###     ",
"######### #     ",
"!!!!    ###     "};