/* XPM */
static char * blockedit_xpm[] = {
"16 16 8 1",
" 	c None",
".	c #2E3436",
"+	c #8AE234",
"@	c #73D216",
"#	c #EF2929",
"$	c #4E9A06",
"%	c #E53924",
"&	c #E9B96E",
"..   .        +@",
"... ...      +@@",
" .....##    +@@$",
"  ...###   +@@$ ",
" ...###   +@@$  ",
"...####  +@@$   ",
" .####%#+@@$    ",
"  ## ##+@@$     ",
"     #+@@$#  #  ",
"     +@@$## ### ",
"    @@@$######..",
"    &@$   ###...",
"   &.&   ###... ",
"   .&   ###.... ",
"         #......",
"          .. ..."};
