/* XPM */
static char * blockdel_xpm[] = {
"16 16 6 1",
" 	c None",
".	c #2E3436",
"+	c #EF2929",
"@	c #BABDB6",
"#	c #EEEEEC",
"$	c #D3D7CF",
"..   .          ",
"... ...         ",
" ..+..@@  ###+  ",
"  +++@@@ ###+++ ",
" ..+++@  ##+++  ",
"...@+++  #+++#  ",
" .@@@+++ +++#   ",
"  @@  +++++     ",
"      ++++   @  ",
"   $$++++++ @@@ ",
"  $$+++  +++@@..",
"  $+++$   +++...",
"  +++$$  @@+++. ",
" +++$$  @@@.+++ ",
"  +      @...+..",
"          .. ..."};
