/* XPM */
static char * blocknew_xpm[] = {
"16 16 8 1",
" 	c None",
".	c #2E3436",
"+	c #EDD400",
"@	c #00FFFF",
"#	c #25E100",
"$	c #FCE94F",
"%	c #EEEEEC",
"&	c #EF2929",
".. +            ",
"..+++           ",
" .+++.@@  ###   ",
"++$%%++@ #####  ",
"++$%%+++ #####  ",
"++$$$++  #####  ",
"  +++@@@  ###   ",
"  +++ @@@       ",
"   +   @@@   @  ",
"   &&&  @@@ @@@ ",
"  &&&&&  @@@@@..",
"  &&&&&   @@@...",
"  &&&&&  @@@... ",
"   &&&  @@@.... ",
"         @......",
"          .. ..."};
