/* XPM */
static char * block_xpm[] = {
"16 16 26 1",
" 	c None",
".	c #008802",
"+	c #0B830C",
"@	c #008301",
"#	c #008601",
"$	c #008702",
"%	c #088508",
"&	c #008701",
"*	c #000000",
"=	c #048902",
"-	c #00C3FF",
";	c #09C5F5",
">	c #15C7E9",
",	c #16C6E9",
"'	c #020200",
")	c #00C4FF",
"!	c #ED2424",
"~	c #EE3535",
"{	c #EB0E0E",
"]	c #EA0000",
"^	c #EC1C1C",
"/	c #EB1212",
"(	c #EB1919",
"_	c #EB1313",
":	c #EB0000",
"<	c #E90000",
"                ",
"      .+@#      ",
"      $%&&      ",
"      ....      ",
" *    .=..    * ",
" *  -      -  * ",
" *  -      -  * ",
"*** -----;>, '**",
"*** )------- ***",
" *  )      -  * ",
" *  -      -  * ",
"      !~{]      ",
"      ^/]]      ",
"      (]_]      ",
"      :<<]      ",
"                "};
