/* XPM */
static char * bluedot[] = {
"16 16 7 1",
" 	c None",
".	c #000000",
"+	c #3465A4",
"@	c #3565A4",
"#	c #4465A1",
"$	c #5A649B",
"%	c #4C79BA",
"                ",
"                ",
"      ....      ",
"    ..#@@#..    ",
"   .$%%%+++$.   ",
"   .%%%%%+++.   ",
"  .#%%%%%+++#.  ",
"  .@%%%%%+++@.  ",
"  .@+%%%++++@.  ",
"  .#++++++++#.  ",
"   .++++++++.   ",
"   .$++++++$.   ",
"    ..#@@#..    ",
"      ....      ",
"                ",
"                "};
