#define bma0_width 16
#define bma0_height 16
static unsigned char bma0_bits[] = {
   0x80, 0x00, 0x80, 0x00, 0x80, 0x00, 0x80, 0x00, 0x80, 0x00, 0x80, 0x00,
   0x80, 0x00, 0x80, 0x00, 0x80, 0x00, 0x80, 0x00, 0x80, 0x00, 0x80, 0x00,
   0x80, 0x00, 0x80, 0x00, 0x80, 0x00, 0x00, 0x00};
