/* XPM */
static char * bridge_xpm[] = {
"16 16 3 1",
" 	c None",
".	c #00FFFF",
"+	c #000000",
"..            ..",
" ..          .. ",
"  ............  ",
"   ..........   ",
"+   +    +    + ",
"+++++++++++++++ ",
"+   +    +    + ",
"+   +    +    + ",
"+   +    +    + ",
"+++++++++++++++ ",
"+   +    +    + ",
"   ..........   ",
"  ............  ",
" ..          .. ",
"..            ..",
"                "};
