#define clip_width 16
#define clip_height 16
static unsigned char clip_bits[] = {
   0xff, 0x03, 0x01, 0x06, 0x01, 0x0a, 0x01, 0x12, 0x01, 0x22, 0x01, 0x7e,
   0x01, 0x40, 0xf9, 0x5f, 0x05, 0x60, 0x13, 0x60, 0xf3, 0x7f, 0x05, 0x60,
   0xf9, 0x5f, 0x01, 0x40, 0x01, 0x40, 0xff, 0x7f };
