/* XPM */
static char * control_xpm[] = {
"16 16 5 1",
" 	c None",
".	c #05FB0B",
"+	c #000000",
"@	c #EF2929",
"#	c #25E100",
".+            + ",
"+++          +++",
" +++        +++ ",
"  +++ +++  +++  ",
"   ++++++++++   ",
"   +++@@@+++    ",
"   ++@@@@@++    ",
"  ++###@@@@++   ",
"  ++####@@@++   ",
"  ++#####@@++   ",
"   ++####@++    ",
"   +++###++++   ",
"  ++++++++++++  ",
" +++  +++   +++ ",
"+++          +++",
"++            ++"};
