/* XPM */ 
static char * dbezier_xpm[] = {
"16 16 3 1",
" 	c None",
"!	c #000000000000",
"#	c #FFFF00000000",
"      ###       ",
"      # ########",
"      ###   !!!!",
"          !!!!  ",
"        !!!!    ",
"       !!!      ",
"      !!!       ",
"      !!        ",
"     !!!        ",
"     !!         ",
"    !!!         ",
"   !!!          ",
"  !!!           ",
"!!!!   ###      ",
"######## #      ",
"       ###      "};