/* XPM */
static char * dcpoly_xpm[] = {
"16 16 3 1",
"X	c None",
" 	c #FFFF00000000",
".	c #000000000000",
".XXXXXXXXXXXXXX.",
"X....XXXXXX....X",
"XX.XX..XX..XX.XX",
"XX.XXX....XXX.XX",
"XXX.XXXXXXXX.XXX",
"XXX.XXXXXXXX.XXX",
"XXX.XXXXXXXX.XXX",
"XXX.XXXXXXXX.XXX",
"XXX.XXXXXXXX.XXX",
"XX.XXXXXXXXXX.XX",
"XX.XXXXXXXXXX.XX",
"X..XXXXXXXXXXX.X",
".XXXXXXXXXXXXXX.",
"X...XXXXXXXX...X",
"XXXX...XX...XXXX",
"XXXXXXX..XXXXXXX"};
