/* XPM */
static char *importmod_xpm[] = {
/* columns rows colors chars-per-pixel */
"16 16 49 1 ",
"  c #27795F",
". c #305173",
"X c #1A6878",
"o c #07900F",
"O c #0E8E14",
"+ c #0B9C17",
"@ c #10971E",
"# c #0BA619",
"$ c #10A51D",
"% c #0DB61C",
"& c #159E22",
"* c #209E2D",
"= c #18A727",
"- c #16B627",
"; c #27AB35",
": c #30AF3B",
"> c #2AB437",
", c #31B63E",
"< c #36BD46",
"1 c #3CC44C",
"2 c #40C94E",
"3 c #44CB54",
"4 c #54DB64",
"5 c #195793",
"6 c #3B6D8D",
"7 c #39798B",
"8 c #3F6E9C",
"9 c #377C97",
"0 c #3D77A6",
"q c #3F7FBC",
"w c #37878B",
"e c #38938E",
"r c #378399",
"t c #3983A7",
"y c #6F91B2",
"u c #789ABC",
"i c #7FA1C3",
"p c #86A6C4",
"a c #96B4D1",
"s c #A7C4DB",
"d c #AECBE1",
"f c #B9D5E7",
"g c #C0DBEB",
"h c #C9E1EF",
"j c #CDE4F2",
"k c #D7EDF8",
"l c #DFF2FC",
"z c #E5F6FF",
"x c None",
/* pixels */
"xxqqqqqqqqqxxxxx",
"xxt3111;<>sqxxxx",
"xxq1<<:O;<a;qxxx",
"xxq<;;&x=2pppqxx",
"xxq===$o+;>#xxxx",
"xxq=aid=$=,1>txx",
"xxq=ilaf->44>txx",
"x5qiijlsg-31=0xx",
"5zzzzzzkjh1,#rxx",
"x5Xuuhlsf1111exx",
"xxw<uzpf211;:exx",
"xx9;pys1<<;$+9xx",
"xx0@&@=<;;=%#9xx",
"xx8;<;;===$##7xx",
"xx8*<<==+@++#7xx",
"xx.677776667w xx"
};
