/* XPM */
static char * export_xpm[] = {
"16 16 71 1",
" 	c None",
".	c #406C98",
"+	c #DDF0FB",
"@	c #D4E9F7",
"#	c #D1E7F5",
"$	c #CEE4F4",
"%	c #CCE2F3",
"&	c #CCE1F2",
"*	c #A7C2DC",
"=	c #D6EBF7",
"-	c #C5DFEF",
";	c #C1DBED",
">	c #BCD6EA",
",	c #B6D0E8",
"'	c #B3CDE6",
")	c #B2CCE5",
"!	c #9AB6D2",
"~	c #E5F6FF",
"{	c #D7ECF8",
"]	c #C7E1EF",
"^	c #85A4C2",
"/	c #D7EDF8",
"(	c #C8E2F0",
"_	c #D8EEF8",
":	c #CAE4F1",
"<	c #D9EEF9",
"[	c #CBE5F2",
"}	c #8FAFCF",
"|	c #83A5C7",
"1	c #DAEFF9",
"2	c #CDE7F2",
"3	c #81A3C5",
"4	c #105293",
"5	c #DAF0F9",
"6	c #CEE8F3",
"7	c #C0DAEB",
"8	c #AFCCE0",
"9	c #9AB9D4",
"0	c #88A9C9",
"a	c #7FA1C3",
"b	c #CCE1F0",
"c	c #155493",
"d	c #DBF0FA",
"e	c #D0EAF4",
"f	c #CFE8F3",
"g	c #D4EAF6",
"h	c #E1F3FD",
"i	c #195793",
"j	c #DBF1FA",
"k	c #D1EBF4",
"l	c #C1DCEB",
"m	c #AFCBE0",
"n	c #98B7D1",
"o	c #84A4C4",
"p	c #799BBD",
"q	c #CBE0EF",
"r	c #1E5993",
"s	c #DCF1FA",
"t	c #D2ECF5",
"u	c #7597B9",
"v	c #275D94",
"w	c #DCF2FB",
"x	c #D3EDF5",
"y	c #84A4C0",
"z	c #6B8DAF",
"A	c #3D71A5",
"B	c #DDF2FB",
"C	c #D4EEF6",
"D	c #D8EDF8",
"E	c #E1F4FD",
"F	c #DFF2FC",
"  .........     ",
"  .+@#$%&&*.    ",
"  .=-;>,')!~.   ",
"  .{]-;>,'^^^.  ",
"  ./(]-;>,')&.  ",
"  ._:(]-;>,'&.  ",
"  .<[:(]-;>}|   ",
"  .12[:(]-;3~4  ",
"  .562[7890ab~c ",
"  .de62fg1h~~~~i",
"  .jke6lmnopq~r ",
"  .stke62[:u~v  ",
"  .wxtke62[yzA  ",
"  .BCxtke62[D.  ",
"  .EBwsjd51<F.  ",
"  ............  "};
