/* XPM */
static char * export_dxf_xpm[] = {
"16 16 65 1",
" 	c None",
".	c #406C98",
"+	c #DDF0FB",
"@	c #D4E9F7",
"#	c #11CC22",
"$	c #CEE4F4",
"%	c #CCE2F3",
"&	c #CCE1F2",
"*	c #A7C2DC",
"=	c #D6EBF7",
"-	c #C5DFEF",
";	c #BCD6EA",
">	c #B6D0E8",
",	c #B3CDE6",
"'	c #9AB6D2",
")	c #E5F6FF",
"!	c #D7ECF8",
"~	c #C7E1EF",
"{	c #C1DBED",
"]	c #85A4C2",
"^	c #D8EEF8",
"/	c #CAE4F1",
"(	c #D9EEF9",
"_	c #CBE5F2",
":	c #C8E2F0",
"<	c #8FAFCF",
"[	c #83A5C7",
"}	c #DAEFF9",
"|	c #CDE7F2",
"1	c #81A3C5",
"2	c #105293",
"3	c #AFCCE0",
"4	c #9AB9D4",
"5	c #88A9C9",
"6	c #7FA1C3",
"7	c #CCE1F0",
"8	c #155493",
"9	c #DBF0FA",
"0	c #D0EAF4",
"a	c #CFE8F3",
"b	c #D4EAF6",
"c	c #E1F3FD",
"d	c #195793",
"e	c #DBF1FA",
"f	c #D1EBF4",
"g	c #CEE8F3",
"h	c #C1DCEB",
"i	c #AFCBE0",
"j	c #98B7D1",
"k	c #84A4C4",
"l	c #799BBD",
"m	c #CBE0EF",
"n	c #1E5993",
"o	c #DCF1FA",
"p	c #D2ECF5",
"q	c #7597B9",
"r	c #275D94",
"s	c #84A4C0",
"t	c #6B8DAF",
"u	c #3D71A5",
"v	c #DDF2FB",
"w	c #D4EEF6",
"x	c #D8EDF8",
"y	c #E1F4FD",
"z	c #DFF2FC",
"  .........     ",
"  .+@#$%&#*.    ",
"  .=-#;>,#').   ",
"  .!~#{;>#]]].  ",
"  .##########.  ",
"  .^/#~-{#>,&.  ",
"  .(_#:~-#;<[   ",
"  .}|#/:~#{1)2  ",
"  .#####34567)8 ",
"  .90#|ab}c))))d",
"  .ef#ghijklm)n ",
"  .op#0g|#/q)r  ",
"  .########stu  ",
"  .vw#pf0#|_x.  ",
"  .yv#oe9#}(z.  ",
"  ............  "};
