/* XPM */
static char * importmod_xpm[] = {
"16 16 147 2",
"  	c None",
". 	c #3F7FBC",
"+ 	c #44CC55",
"@ 	c #3FC64F",
"# 	c #3EC64F",
"$ 	c #3AC049",
"% 	c #2EAD3A",
"& 	c #32B13E",
"* 	c #2CB239",
"= 	c #A7C2DC",
"- 	c #3BC34C",
"; 	c #34BB44",
"> 	c #34BC45",
", 	c #2DAF3B",
"' 	c #0E8E14",
") 	c #27A932",
"! 	c #3FBD4C",
"~ 	c #9AB6D2",
"{ 	c #22B330",
"] 	c #33BB43",
"^ 	c #25AE36",
"/ 	c #20A930",
"( 	c #1A9D27",
"_ 	c #1FAC2D",
": 	c #41C650",
"< 	c #85A4C2",
"[ 	c #1DAC2D",
"} 	c #15A626",
"| 	c #15A726",
"1 	c #129F20",
"2 	c #07900F",
"3 	c #089614",
"4 	c #26A732",
"5 	c #2BB338",
"6 	c #0CA41C",
"7 	c #13AB23",
"8 	c #94B4D1",
"9 	c #86A7C9",
"0 	c #AECBE1",
"a 	c #17A322",
"b 	c #15A622",
"c 	c #1CAA29",
"d 	c #30BB3E",
"e 	c #33BE40",
"f 	c #27B335",
"g 	c #3983A7",
"h 	c #11A51F",
"i 	c #81A3C5",
"j 	c #E4F6FF",
"k 	c #93B2D0",
"l 	c #B6D2E6",
"m 	c #10BA22",
"n 	c #2DB93A",
"o 	c #55DC65",
"p 	c #52DA62",
"q 	c #27B234",
"r 	c #3982A6",
"s 	c #155493",
"t 	c #7FA1C3",
"u 	c #CBE1F0",
"v 	c #DEF2FC",
"w 	c #A5C3DA",
"x 	c #BED9EA",
"y 	c #1DB22B",
"z 	c #47CF56",
"A 	c #40C94E",
"B 	c #16A321",
"C 	c #3B7DAB",
"D 	c #195793",
"E 	c #E5F6FF",
"F 	c #DFF2FC",
"G 	c #D7EDF8",
"H 	c #CFE7F4",
"I 	c #C7E1EF",
"J 	c #3AC149",
"K 	c #2FB83C",
"L 	c #0BA01A",
"M 	c #36859C",
"N 	c #1E5993",
"O 	c #1A6878",
"P 	c #799BBD",
"Q 	c #CAE0EF",
"R 	c #A4C2D9",
"S 	c #C0DBEB",
"T 	c #38BE47",
"U 	c #3DC54D",
"V 	c #3BC24A",
"W 	c #3BC14A",
"X 	c #38958E",
"Y 	c #35898D",
"Z 	c #37BE48",
"` 	c #7597B9",
" .	c #8BABC7",
"..	c #B8D4E6",
"+.	c #39BF48",
"@.	c #2BAC37",
"#.	c #30AF3B",
"$.	c #38918D",
"%.	c #378195",
"&.	c #27A634",
"*.	c #86A6C1",
"=.	c #6F91B2",
"-.	c #ACC9DC",
";.	c #2BAF39",
">.	c #10A41B",
",.	c #0D9D19",
"'.	c #357F93",
").	c #3C76A3",
"!.	c #11941E",
"~.	c #1CA02A",
"{.	c #0B9919",
"].	c #1EA62C",
"^.	c #19A026",
"/.	c #0DB61C",
"(.	c #0AAA19",
"_.	c #38789B",
":.	c #3F72A5",
"<.	c #24A331",
"[.	c #38BE49",
"}.	c #25A932",
"|.	c #1FAB2F",
"1.	c #12A220",
"2.	c #0AAA16",
"3.	c #089D12",
"4.	c #36798F",
"5.	c #3F6E9C",
"6.	c #209E2D",
"7.	c #2DAF3C",
"8.	c #22AD31",
"9.	c #129D20",
"0.	c #10961E",
"a.	c #109B1D",
"b.	c #0C9D18",
"c.	c #0B9F18",
"d.	c #377C8A",
"e.	c #305173",
"f.	c #3C748E",
"g.	c #3C7B8B",
"h.	c #3B738D",
"i.	c #39788A",
"j.	c #397B89",
"k.	c #3B6D8C",
"l.	c #3C6B8F",
"m.	c #3A6F8B",
"n.	c #397F88",
"o.	c #398488",
"p.	c #27795F",
"    . . . . . . . . .           ",
"    . + @ # $ % & * = .         ",
"    . - ; > , ' ) ! ~ { .       ",
"    . ] ^ / (   _ : < < < .     ",
"    . [ } | 1 2 3 4 5 6         ",
"    . 7 8 9 0 a b c d e f g     ",
"    . h i j k l m n o p q r     ",
"  s . t t u v w x y z A B C     ",
"D E E E E j F G H I J K L M     ",
"  N O P P Q F R S T U V W X     ",
"    Y Z ` j  ...@ # +.@.#.$.    ",
"    %.&.*.=.-.- ; > ;.>.,.'.    ",
"    ).!.~.{.].] ^ / ^./.(._.    ",
"    :.<.[.}.|.[ } | 1.2.3.4.    ",
"    5.6.Z 7.8.7 9.0.a.b.c.d.    ",
"    e.f.g.h.i.j.k.l.m.n.o.p.    "};
