/* XPM */
static char * import_xpm[] = {
"16 16 73 1",
" 	c None",
".	c #406C98",
"+	c #DDF0FB",
"@	c #D4E9F7",
"#	c #D1E7F5",
"$	c #CEE4F4",
"%	c #CCE2F3",
"&	c #CCE1F2",
"*	c #A7C2DC",
"=	c #D6EBF7",
"-	c #C5DFEF",
";	c #C1DBED",
">	c #BCD6EA",
",	c #B6D0E8",
"'	c #B3CDE6",
")	c #B2CCE5",
"!	c #9AB6D2",
"~	c #E5F6FF",
"{	c #D7ECF8",
"]	c #C7E1EF",
"^	c #85A4C2",
"/	c #D7EDF8",
"(	c #C8E2F0",
"_	c #D8EEF8",
":	c #94B4D1",
"<	c #86A7C9",
"[	c #AECBE1",
"}	c #D9EEF9",
"|	c #81A3C5",
"1	c #E4F6FF",
"2	c #93B2D0",
"3	c #B6D2E6",
"4	c #155493",
"5	c #7FA1C3",
"6	c #CBE1F0",
"7	c #DEF2FC",
"8	c #A5C3DA",
"9	c #BED9EA",
"0	c #195793",
"a	c #DFF2FC",
"b	c #CFE7F4",
"c	c #1E5993",
"d	c #799BBD",
"e	c #CAE0EF",
"f	c #A4C2D9",
"g	c #C0DBEB",
"h	c #D4EAF7",
"i	c #DBF1FA",
"j	c #7597B9",
"k	c #8BABC7",
"l	c #B8D4E6",
"m	c #CBE5F2",
"n	c #CAE4F1",
"o	c #D5EBF7",
"p	c #DCF1FA",
"q	c #86A6C1",
"r	c #6F91B2",
"s	c #ACC9DC",
"t	c #CEE8F3",
"u	c #CDE7F2",
"v	c #D6ECF7",
"w	c #DCF2FB",
"x	c #D3EDF5",
"y	c #D2ECF5",
"z	c #D1EBF4",
"A	c #D0EAF4",
"B	c #DDF2FB",
"C	c #D4EEF6",
"D	c #D8EDF8",
"E	c #E1F4FD",
"F	c #DBF0FA",
"G	c #DAF0F9",
"H	c #DAEFF9",
"  .........     ",
"  .+@#$%&&*     ",
"  .=-;>,')!~    ",
"  .{]-;>,'^^^.  ",
"  ./(]-;>,')&.  ",
"  ._:<[-;>,'&.  ",
"  .}|123-;>,%.  ",
" 44556789-;>$.  ",
"0~~~~1a/b]-;#.  ",
" ccddeafg(]-h.  ",
"  .ij1klmn(]o.  ",
"  .pqrstumn(v.  ",
"  .wxyzAtumn{.  ",
"  .BCxyzAtumD.  ",
"  .EBwpiFGH}a.  ",
"  ............  "};
