/* XPM */
static char * dpolyline_xpm[] = {
"16 16 3 1",
"X	c None",
" 	c #FFFF00000000",
".	c #000000000000",
"XXXXXXXXXXXXXXXX",
"XXXXXXX .... XXX",
"XXXXXXXXXX..XXXX",
"XXXXXXXXX.XXXXXX",
"XXXXXXX..XXXXXXX",
"XXXXXX.XXXXXXXXX",
"XXXX..XXXXXXXXXX",
"XXX ...XXXXXXXXX",
"XXXXXXX......XXX",
" XXXXXXXXXXXX.. ",
"X.XXXXXXXXXXXX.X",
"X.XXXXXXXXXX..XX",
"XX.XXXXXXXX.XXXX",
"XXX.XXXXXX.XXXXX",
"XXX.XXXX..XXXXXX",
"XXXX .. XXXXXXXX"};

