/* XPM */
static char * dpolyline_xpm[] = {
"16 16 3 1",
"X	c None",
" 	c #FFFF00000000",
".	c #000000000000",
"XXXXXXXXXXXXXXXX",
"XX.XXXXXXXX.XXXX",
"X.X..XXXX..X.XXX",
"X.XXX....XXXX.XX",
".XXXXXXXXXXXXX.X",
".XXXXXXXXXXXXX.X",
".XXXXXXXXXXXXX.X",
".XXXXXXXXXXXXX.X",
".XXXXXXXXXXXX.XX",
"X.XXXXXXXXXX.XXX",
"X.XXXXXXXXX.XXXX",
"X.XXXXX.....XXXX",
"XX.....XXXXX.XXX",
"XX.XXXXXXXXXXXXX",
"XXXXXXXXXXXXXXXX",
"XXXXXXXXXXXXXXXX"};
