/* XPM */
static char * ecornu_xpm[] = {
"41 16 4 1",
".	c None",
" 	c #000000000000",
"#	c #FFFF00000000",
"$	c #808080000000",
"     .................................. .",
" .....................................   ",
" ......  ...   ..  ..   .  ...  ..   .. .",
"    .. .. . .... .. . .. .. . .. . .. . .",
" ..... .. ..  ..    . .. .. .    . .. . .",
" ..... .. .... . .... .. .. . .... .. . .",
"     ..   .   ...   . .. .. ..   . .. .. ",
".........................................",
"...$$$...###.....................$$$$$...",
"..$...$.#...#................$$$$.....$..",
".$..$..$#......##..###..###$$#..#.$$$..$.",
"$..$.$..#.....#..#.#$$#$#..#.#..#$...$..$",
"$..$...$#.....#$$#$#....#..#.#..#..$.$..$",
".$..$$$.#..$#$#..#.#....#..#.#..#$..$..$.",
"..$.....$###...##..#....#..#..##..$...$..",
"...$$$$$...........................$$$..."};
