/* XPM */
static char * export_xpm[] = {
"16 16 3 1",
" 	c None",
".	c #000000000000",
"X	c #0000FFFFFFFF",
"       .........",
"       .       .",
"   X   .       .",
"    X  .       .",
"XXXXXX .       .",
"XXXXXXX.       .",
"XXXXXXX.       .",
"XXXXXX .       .",
"    X  . ..    .",
"   X   ..  .  ..",
"        .   .   ",
"..   ........ ..",
" .. .. ...... ..",
"  ...    ..   ..",
" .. ..   ..   ..",
"..   ..  ..   .."};
