/* XPM */
static char * funnelclear_xpm[] = {
"16 16 105 2",
"  	c None",
". 	c #216262",
"+ 	c #123737",
"@ 	c #030A0A",
"# 	c #000000",
"$ 	c #010303",
"% 	c #050E0E",
"& 	c #091C1C",
"* 	c #0F2E2E",
"= 	c #164242",
"- 	c #1C5353",
"; 	c #76D1D1",
"> 	c #82D5D5",
", 	c #79D2D2",
"' 	c #62CBCB",
") 	c #65CCCC",
"! 	c #75D1D1",
"~ 	c #80D5D5",
"{ 	c #7AAEAE",
"] 	c #9D5E5E",
"^ 	c #6DA5A5",
"/ 	c #39ACAC",
"( 	c #3BB1B1",
"_ 	c #42C0C0",
": 	c #57C7C7",
"< 	c #8AB6B6",
"[ 	c #A21717",
"} 	c #7D4747",
"| 	c #92BABA",
"1 	c #9F6464",
"2 	c #FF7777",
"3 	c #9C6060",
"4 	c #6CA5A5",
"5 	c #4BC3C3",
"6 	c #7BD3D3",
"7 	c #86B4B4",
"8 	c #A16767",
"9 	c #F87070",
"0 	c #A70000",
"a 	c #9C0101",
"b 	c #FE7676",
"c 	c #D44C4C",
"d 	c #FA7272",
"e 	c #965C5C",
"f 	c #70AAAA",
"g 	c #85B4B4",
"h 	c #9B6464",
"i 	c #EA6262",
"j 	c #E45C5C",
"k 	c #A30000",
"l 	c #8C0303",
"m 	c #990000",
"n 	c #EF6767",
"o 	c #BE3636",
"p 	c #E65E5E",
"q 	c #955F5F",
"r 	c #996464",
"s 	c #D74F4F",
"t 	c #CD4545",
"u 	c #A00000",
"v 	c #A10000",
"w 	c #880000",
"x 	c #940000",
"y 	c #DB5353",
"z 	c #B72E2E",
"A 	c #C63D3D",
"B 	c #BA3131",
"C 	c #9F1515",
"D 	c #A81E1E",
"E 	c #9B0000",
"F 	c #9C0000",
"G 	c #830000",
"H 	c #8F0000",
"I 	c #B42525",
"J 	c #A21111",
"K 	c #A51414",
"L 	c #970000",
"M 	c #980000",
"N 	c #910000",
"O 	c #8B0000",
"P 	c #AF1515",
"Q 	c #AC1111",
"R 	c #920000",
"S 	c #8C0000",
"T 	c #8D0000",
"U 	c #B81111",
"V 	c #870000",
"W 	c #C41111",
"X 	c #800202",
"Y 	c #820000",
"Z 	c #D01111",
"` 	c #7C6161",
" .	c #5A0606",
"..	c #570000",
"+.	c #720000",
"@.	c #D81111",
"#.	c #6C0000",
"$.	c #5FAFAF",
"%.	c #020606",
"&.	c #340000",
"*.	c #5F0000",
"=.	c #270000",
"-.	c #6AC2C2",
";.	c #360000",
">.	c #313333",
"                                ",
"  . + @ # # # $ % & * = - .     ",
"  . ; ; ; > , ' ) ! ~ ; ; .     ",
"  . + ; { ] ^ / ( _ : < [ }     ",
"    + | 1 2 3 4 5 6 7 8 9 0 0   ",
"    + a b c d e f g h i c j k   ",
"      l m n o p q r s o t u v   ",
"        w x y z A B C D E F     ",
"          G H I J J K L M       ",
"          N O P Q Q Q R N       ",
"        S T U U U U U U T S     ",
"      V V W W W X V W W W V V   ",
"      Y Z Z Z `  .G Y Z Z Z Y   ",
"      ..+.@.#.$.%.  ..+.@.+...  ",
"      # &.*.=.-.$ # # ;.*.&.#   ",
"            # # >.              "};
