/* XPM */
static char *funnel_xpm[] = {
"16 16 43 1",
" 	c None",
".	c #216262",
"+	c #123737",
"@	c #030A0A",
"#	c #000000",
"$	c #010303",
"%	c #050E0E",
"&	c #091C1C",
"*	c #0F2E2E",
"=	c #164242",
"-	c #1C5353",
";	c #76D1D1",
">	c #82D5D5",
",	c #79D2D2",
"'	c #62CBCB",
")	c #65CCCC",
"!	c #75D1D1",
"~	c #80D5D5",
"{	c #5FCACA",
"]	c #52C5C5",
"^	c #42C0C0",
"/	c #39ACAC",
"(	c #3BB1B1",
"_	c #57C7C7",
":	c #7BD3D3",
"<	c #89D8D8",
"[	c #7ED4D4",
"}	c #60CACA",
"|	c #43C0C0",
"1	c #4BC3C3",
"2	c #86D7D7",
"3	c #71D0D0",
"4	c #46C1C1",
"5	c #50C5C5",
"6	c #49C2C2",
"7	c #4CC3C3",
"8	c #5EC9C9",
"9	c #000101",
"0	c #040B0B",
"a	c #020606",
"b	c #72D0D0",
"c	c #010404",
"d	c #313333",
"                ",
" .+@###$%&*=-.  ",
" .;;;>,')!~;;.  ",
" .+;{]^/(^_:-.  ",
"  +<;[}|1:;2-   ",
"  +@;;345;;=-   ",
"   @#;;6_;*=    ",
"    ##;78&*     ",
"     ##'%&      ",
"      #'%       ",
"      #'%       ",
"      #'%       ",
"      9'0       ",
"      $'a       ",
"      #bc       ",
"      ##d       "};
