/* XPM */
static char * greendot[] = {
"16 16 4 1",
" 	c None",
".	c #000000",
"+	c #4E9A06",
"@	c #59A51A",
"                ",
"                ",
"      ....      ",
"    ..++++..    ",
"   .+@@@++++.   ",
"   .@@@@@+++.   ",
"  .+@@@@@++++.  ",
"  .+@@@@@++++.  ",
"  .++@@@+++++.  ",
"  .++++++++++.  ",
"   .++++++++.   ",
"   .++++++++.   ",
"    ..++++..    ",
"      ....      ",
"                ",
"                "};
