/* XPM */
static char * greystar[] = {
"16 16 26 1",
" 	c None",
".	c #2A2B29",
"+	c #7E807B",
"@	c #848680",
"#	c #8F918C",
"$	c #7A7C76",
"%	c #8D8F8A",
"&	c #91938E",
"*	c #7F817B",
"=	c #767873",
"-	c #81847E",
";	c #80827C",
">	c #787B75",
",	c #8A8D87",
"'	c #90928D",
")	c #8F928C",
"!	c #737670",
"~	c #72746F",
"{	c #737570",
"]	c #7C7E78",
"^	c #6A6C67",
"/	c #81837D",
"(	c #7B7E78",
"_	c #666763",
":	c #6C6E69",
"<	c #666863",
"      .  .      ",
"      .++.      ",
"      .@@.      ",
"     . ## .     ",
"     .$%%$.     ",
"......&&&*......",
"=====&&&&%======",
".=-%%&&&%%%%%;=.",
" ..>%%%%%%%%>.. ",
"   .=%%,,,%=.   ",
"    .%%%%%%.    ",
"    .''&')#.    ",
"   .!%%~~%%{.   ",
"   .]-^..^/(.   ",
"  ._:..  ..:_.  ",
"  .<.      .<.  "};
