/* XPM */
static char * greystar[] = {
"16 16 50 1",
" 	c None",
".	c #5A5B57",
"+	c #5B5D59",
"@	c #6D6F6A",
"#	c #73756F",
"$	c #878984",
"%	c #868882",
"&	c #555652",
"*	c #3D3F3C",
"=	c #565854",
"-	c #5C5E59",
";	c #62645F",
">	c #676964",
",	c #757772",
"'	c #8F918C",
")	c #8B8D88",
"!	c #6E706A",
"~	c #5A5C58",
"{	c #51534F",
"]	c #4D4F4B",
"^	c #525450",
"/	c #81837D",
"(	c #888A84",
"_	c #959792",
":	c #8E908A",
"<	c #868983",
"[	c #7F817B",
"}	c #787A74",
"|	c #4C4D49",
"1	c #6C6E69",
"2	c #8D8F8A",
"3	c #8B8D87",
"4	c #848680",
"5	c #7D807A",
"6	c #686A65",
"7	c #6B6D68",
"8	c #83857F",
"9	c #646561",
"0	c #7D7F79",
"a	c #7C7E78",
"b	c #787B75",
"c	c #60625D",
"d	c #50514D",
"e	c #72746E",
"f	c #565753",
"g	c #5F615D",
"h	c #474945",
"i	c #646661",
"j	c #4A4B48",
"k	c #474844",
"                ",
"                ",
"                ",
"       .+       ",
"       @#       ",
"       $%&      ",
" *=-;>,')!~={]  ",
"  ^#/('_:<[}@|  ",
"    1%)23456    ",
"     74%8[9     ",
"     ,05abc     ",
"    deef;e1     ",
"    &gh  di|    ",
"    j      k    ",
"                ",
"                "};
