/* XPM */
static char * greydot[] = {
"16 16 6 1",
" 	c None",
".	c #000000",
"+	c #30312F",
"@	c #959792",
"#	c #888A85",
"$	c #A2A49F",
"                ",
"                ",
"      ....      ",
"    .+@@@@+.    ",
"   .#$$$@@@#.   ",
"   +$$$$$@@@+   ",
"  .@$$$$$@@@@.  ",
"  .@$$$$$@@@@.  ",
"  .@@$$$@@@@@.  ",
"  .@@@@@@@@@@.  ",
"   +@@@@@@@@+   ",
"   .#@@@@@@#.   ",
"    .+@@@@+.    ",
"      ....      ",
"                ",
"                "};
