#define link_width 16
#define link_height 16
static char link_bits[] = {
   0xff, 0x03, 0x01, 0x06, 0x01, 0x0a, 0x01, 0x12, 0x01, 0x22, 0x01, 0x7e, 
   0x01, 0x40, 0x31, 0x46, 0x49, 0x49, 0x85, 0x50, 0x85, 0x50, 0x49, 0x49, 
   0x31, 0x46, 0x01, 0x40, 0x01, 0x40, 0xff, 0x7f};
