/* XPM */
static char * magnifier_xpm[] = {
"16 16 70 1",
" 	c None",
".	c #545454",
"+	c #555555",
"@	c #515151",
"#	c #5E6063",
"$	c #94A3B1",
"%	c #C5D5E6",
"&	c #DFEAF4",
"*	c #D9E3ED",
"=	c #A2ACB6",
"-	c #4D4D4D",
";	c #5A5D5F",
">	c #AEC1D5",
",	c #C4D8EB",
"'	c #E2ECF6",
")	c #E4EDF6",
"!	c #B8C8D9",
"~	c #5B5D60",
"{	c #494949",
"]	c #919FAD",
"^	c #BBD2E8",
"/	c #D5E3F1",
"(	c #D6E4F2",
"_	c #97A4B0",
":	c #434343",
"<	c #B6CBE0",
"[	c #C1D3E4",
"}	c #3E3E3E",
"|	c #BED4E9",
"1	c #C8DBED",
"2	c #383838",
"3	c #BCCFE1",
"4	c #CAD8E7",
"5	c #313131",
"6	c #939DA8",
"7	c #BFD5EA",
"8	c #DFE9F5",
"9	c #9EA6AD",
"0	c #373737",
"a	c #444647",
"b	c #C4D1DE",
"c	c #D9E6F3",
"d	c #E6EFF7",
"e	c #D3D9DF",
"f	c #3B3C3D",
"g	c #262626",
"h	c #3B3B3B",
"i	c #3C3C3C",
"j	c #ADADAF",
"k	c #28292B",
"l	c #91979D",
"m	c #E3E8EE",
"n	c #EDF3F9",
"o	c #E5EAEF",
"p	c #9EA0A3",
"q	c #282829",
"r	c #464647",
"s	c #B8B8BC",
"t	c #151516",
"u	c #141414",
"v	c #3D3D3D",
"w	c #515153",
"x	c #C4C4CC",
"y	c #212122",
"z	c #606064",
"A	c #D1D1DD",
"B	c #2E2E30",
"C	c #DADAEA",
"D	c #3F3F43",
"E	c #151515",
"       .+++++.  ",
"      @#$%&*=#@ ",
"     -;>,'))'!~-",
"     {]^/))))(_{",
"     :<^^^^^^^[:",
"     }|^^)))))1}",
"     23^))))))42",
"     5678))))'95",
"     0abc)))defg",
"    hijklmnopq  ",
"   irst uuuuu   ",
"  vwxy          ",
" }zAB           ",
" 0CD            ",
" Eu             ",
"                "};
