/* XPM */
static char * magnet_xpm[] = {
"16 16 3 1",
" 	c #FF0000",
".	c None",
"X	c #FFFF00",
"................",
"........  ......",
".......     ....",
"......       ...",
".....         ..",
".....    .     .",
"....    ...    .",  
"...    ...     .",
"..XXX  ...    ..",
".XXXXX...     ..",
"..XXXX..     ...",
"...XX..XX   ....",
"......XXXXX ....",
"......XXXXX.....",
"........XX......",
"................"};
