/* XPM */
static char * map_xpm[] = {
"16 16 5 1",
"o	c None",
" 	c #000000000000",
".	c #FFFFFFFFFFFF",
"X	c #0000FFFFFFFF",
"Y	c #FFFF7DF70000",
"................",
".  ......  .....",
". . .... .  ....",
". .. .. .. . ...",
". YY.  ... .. ..",
". .YY. ... ... .",
". X.YY ..X ... .",  
". XX.Y YXX X.. .",
". .XX. YYY YX. .",
". ..XX XX. YYX .",
". ...X X.. .YY .",
".  ... ..  ... .",
"..  .. . .  .. .",
"...  .  ...  . .",
"....   .....   .",
"................"};
