/* XPM */
static char * map_xpm[] = {
"16 16 3 1",
"o	c None",
" 	c #000000000000",
".	c #FFFFFFFFFFFF",
"ooo          ooo",
"ooo          ooo",
"oo  ........  oo",
"oo  ........  oo",
"o  ..........  o",
"o  ..........  o",
"  ......  ....  ",
"   .... .. ...  ",
" .. .. .... ..  ",
" ...  ......  . ",
" .............. ",
"                ",
"                ",
"oooooooooooooooo",
"oooooooooooooooo",
"oooooooooooooooo"};
