/* XPM */
static char * modifyline_xpm[] = {
"16 16 4 1",
" 	c None",
".	c #FFFF00000000",
"X	c #000000000000",
"o	c #0000FFFFFFFF",
"                ",
"            .   ",
"           ...  ",
"          . . . ",
"         . X.X .",
"           X.X  ",
"           X.X  ",
"           X.X  ",
"          X.X   ",
"         X.X    ",
"        X.X     ",
"ooo... X.X    . ",
"oo.   .XXXXXX. .",
"ooo...        . ",
"                ",
"                "};
