/* XPM */
static char * redstar[] = {
"16 16 48 1",
" 	c None",
".	c #950800",
"+	c #980800",
"@	c #B50A00",
"#	c #BF0A00",
"$	c #E00C00",
"%	c #DE0C00",
"&	c #8D0800",
"*	c #670600",
"=	c #900800",
"-	c #990800",
";	c #A30900",
">	c #AC0900",
",	c #C30B00",
"'	c #ED0D00",
")	c #E70C00",
"!	c #B70A00",
"~	c #960800",
"{	c #870700",
"]	c #810700",
"^	c #890700",
"/	c #D60C00",
"(	c #E20C00",
"_	c #F70D00",
":	c #EC0D00",
"<	c #D30B00",
"[	c #C70B00",
"}	c #7E0700",
"|	c #B40A00",
"1	c #EA0D00",
"2	c #DB0C00",
"3	c #D10B00",
"4	c #AD0900",
"5	c #B20A00",
"6	c #D90C00",
"7	c #A50900",
"8	c #D00B00",
"9	c #CE0B00",
"0	c #C90B00",
"a	c #A00900",
"b	c #850700",
"c	c #BE0A00",
"d	c #8E0800",
"e	c #9E0900",
"f	c #770600",
"g	c #A70900",
"h	c #7B0700",
"i	c #760600",
"                ",
"                ",
"                ",
"       .+       ",
"       @#       ",
"       $%&      ",
" *=-;>,')!~={]  ",
"  ^#/('_:$<[@}  ",
"    |%)1)234    ",
"     52%6<7     ",
"     ,8390a     ",
"    bccd;c|     ",
"    &ef  bg}    ",
"    h      i    ",
"                ",
"                "};
