/* XPM */
static char * sticky_note_text_bits[] = {
"16 16 80 1",
" 	c None",
".	c #CCB301",
"+	c #CAB101",
"@	c #FBEF9C",
"#	c #F9EB8F",
"$	c #F8EA8D",
"%	c #F8E98A",
"&	c #F6E785",
"*	c #F3E37C",
"=	c #F0E074",
"-	c #EEDD6F",
";	c #D5C44D",
">	c #C8AF01",
",	c #FBED95",
"'	c #F7E67E",
")	c #F6E57C",
"!	c #F5E47B",
"~	c #F4E379",
"{	c #F1E075",
"]	c #ECDB70",
"^	c #E8D76A",
"/	c #E6D567",
"(	c #CDBC45",
"_	c #FFF6BB",
":	c #C6AD01",
"<	c #FBED97",
"[	c #F8E77F",
"}	c #BFAE37",
"|	c #AC9401",
"1	c #C3AA01",
"2	c #FCEE99",
"3	c #CAB973",
"4	c #C9B870",
"5	c #D5C76D",
"6	c #C6B569",
"7	c #D9CC64",
"8	c #D9C86A",
"9	c #C0A701",
"0	c #FDEF9B",
"a	c #E5DC75",
"b	c #E4DB73",
"c	c #E4DA70",
"d	c #E3D86D",
"e	c #E2D769",
"f	c #EBDC70",
"g	c #BCA401",
"h	c #FDF09D",
"i	c #CCBB77",
"j	c #CBBA75",
"k	c #D6C970",
"l	c #C7B66D",
"m	c #C3B264",
"n	c #CEBE5A",
"o	c #CCBB55",
"p	c #C4B355",
"q	c #B9A101",
"r	c #FEF19E",
"s	c #E5DD77",
"t	c #EDDF75",
"u	c #B59E01",
"v	c #FFF1A0",
"w	c #D9CC77",
"x	c #DED273",
"y	c #E1D078",
"z	c #B29A01",
"A	c #FFF2A1",
"B	c #FEED87",
"C	c #FDEC86",
"D	c #FDEC85",
"E	c #FCEB84",
"F	c #FBEA82",
"G	c #FAE981",
"H	c #A89100",
"I	c #FFF4AF",
"J	c #FDF09C",
"K	c #FAEC92",
"L	c #F9EA90",
"M	c #FAEC96",
"N	c #9D8600",
"O	c #9C8500",
"                ",
"                ",
" ...........    ",
" +@#$%&*=--;+   ",
" >,')!~{]^/(_>  ",
" :<[')!~{]^}}}| ",
" 12345678{]^/-1 ",
" 90abcdef~{]^-9 ",
" ghij3kl6mnop=g ",
" qrssabct)!~{*q ",
" uviiwjxy')!~&u ",
" zABCDEFG[')!%z ",
" HIAvrJ02<,KLMH ",
" NOOOOOOOOOOOON ",
"                ",
"                "};
