/* XPM */
static char * sticky_note_chain_bits[] = {
"16 16 94 2",
"  	c None",
". 	c #CCB301",
"+ 	c #CAB101",
"@ 	c #FBEF9C",
"# 	c #F9EB8F",
"$ 	c #F8EA8D",
"% 	c #F8E98A",
"& 	c #F6E785",
"* 	c #F3E37C",
"= 	c #F0E074",
"- 	c #EEDD6F",
"; 	c #D5C44D",
"> 	c #C8AF01",
", 	c #FBED95",
"' 	c #F7E67E",
") 	c #F6E57C",
"! 	c #F5E47B",
"~ 	c #F4E379",
"{ 	c #F1E075",
"] 	c #ECDB70",
"^ 	c #E8D76A",
"/ 	c #E6D567",
"( 	c #CDBC45",
"_ 	c #FFF6BB",
": 	c #C6AD01",
"< 	c #FBED97",
"[ 	c #EEDD7B",
"} 	c #C3B668",
"| 	c #BCAF61",
"1 	c #C1B363",
"2 	c #E1D26F",
"3 	c #BDB05E",
"4 	c #B4A758",
"5 	c #B7AA5A",
"6 	c #B7A73A",
"7 	c #BFAE37",
"8 	c #AC9401",
"9 	c #C3AA01",
"0 	c #FCEE99",
"a 	c #BDBBAF",
"b 	c #DDDDDC",
"c 	c #9D9674",
"d 	c #ADA155",
"e 	c #9C9573",
"f 	c #BBB9AE",
"g 	c #B5A858",
"h 	c #C0A701",
"i 	c #FDEF9B",
"j 	c #BBAE61",
"k 	c #D8D8DB",
"l 	c #AFA358",
"m 	c #D4D2D1",
"n 	c #EEEEF7",
"o 	c #ADA054",
"p 	c #B0A354",
"q 	c #BCA401",
"r 	c #FDF09D",
"s 	c #B9AD61",
"t 	c #BEBBBB",
"u 	c #C8C8D1",
"v 	c #968E6C",
"w 	c #AFA257",
"x 	c #958E6B",
"y 	c #BDBABB",
"z 	c #B1A456",
"A 	c #B9A101",
"B 	c #FEF19E",
"C 	c #EDDD7C",
"D 	c #B2A65C",
"E 	c #B2A55A",
"F 	c #B9AD5E",
"G 	c #E5D575",
"H 	c #B7AA5C",
"I 	c #AEA256",
"J 	c #E5D571",
"K 	c #B59E01",
"L 	c #FFF1A0",
"M 	c #FDEC86",
"N 	c #FDEC85",
"O 	c #FCEB84",
"P 	c #FBEA82",
"Q 	c #FAE981",
"R 	c #F8E77F",
"S 	c #B29A01",
"T 	c #FFF2A1",
"U 	c #FEED87",
"V 	c #A89100",
"W 	c #FFF4AF",
"X 	c #FDF09C",
"Y 	c #FAEC92",
"Z 	c #F9EA90",
"` 	c #FAEC96",
" .	c #9D8600",
"..	c #9C8500",
"                                ",
"                                ",
"  . . . . . . . . . . .         ",
"  + @ # $ % & * = - - ; +       ",
"  > , ' ) ! ~ { ] ^ / ( _ >     ",
"  : < [ } | 1 2 3 4 5 6 7 7 8   ",
"  9 0 } a b c d e b f g / - 9   ",
"  h i j k l m n m o k p ^ - h   ",
"  q r s t u v w x u y z ] = q   ",
"  A B C D E F G H I d J { * A   ",
"  K L M N O P Q R ' ) ! ~ & K   ",
"  S T U M N O P Q R ' ) ! % S   ",
"  V W T L B X i 0 < , Y Z ` V   ",
"   ......................... .  ",
"                                ",
"                                "};
