/* XPM */
static char * sticky_note_text_bits[] = {
"16 16 67 1",
" 	c None",
".	c #CCB301",
"+	c #CAB101",
"@	c #FBEF9C",
"#	c #F9EB8F",
"$	c #F8EA8D",
"%	c #F8E98A",
"&	c #F6E785",
"*	c #F3E37C",
"=	c #F0E074",
"-	c #EEDD6F",
";	c #D5C44D",
">	c #C8AF01",
",	c #FBED95",
"'	c #F7E67E",
")	c #F6E57C",
"!	c #F5E47B",
"~	c #F4E379",
"{	c #F1E075",
"]	c #ECDB70",
"^	c #E8D76A",
"/	c #E6D567",
"(	c #CDBC45",
"_	c #FFF6BB",
":	c #C6AD01",
"<	c #FBED97",
"[	c #F8E77F",
"}	c #BFAE37",
"|	c #AC9401",
"1	c #C3AA01",
"2	c #FCEE99",
"3	c #7E7E7E",
"4	c #979797",
"5	c #C0A701",
"6	c #FDEF9B",
"7	c #E5DC75",
"8	c #E4DB73",
"9	c #E4DA70",
"0	c #E3D86D",
"a	c #E2D769",
"b	c #EBDC70",
"c	c #BCA401",
"d	c #FDF09D",
"e	c #B9A101",
"f	c #FEF19E",
"g	c #E5DD77",
"h	c #EDDF75",
"i	c #B59E01",
"j	c #FFF1A0",
"k	c #DED273",
"l	c #E1D078",
"m	c #B29A01",
"n	c #FFF2A1",
"o	c #FEED87",
"p	c #FDEC86",
"q	c #FDEC85",
"r	c #FCEB84",
"s	c #FBEA82",
"t	c #FAE981",
"u	c #A89100",
"v	c #FFF4AF",
"w	c #FDF09C",
"x	c #FAEC92",
"y	c #F9EA90",
"z	c #FAEC96",
"A	c #9D8600",
"B	c #9C8500",
"                ",
"                ",
" ...........    ",
" +@#$%&*=--;+   ",
" >,')!~{]^/(_>  ",
" :<[')!~{]^}}}| ",
" 12334344{]^/-1 ",
" 567890ab~{]^-5 ",
" cd3334333443=c ",
" efgg789h)!~{*e ",
" ij3343kl')!~&i ",
" mnopqrst[')!%m ",
" uvnjfw62<,xyzu ",
" ABBBBBBBBBBBBA ",
"                ",
"                "};
