/* XPM */
static char * sticky_note_chain_bits[] = {
"16 16 65 1",
" 	c None",
".	c #CCB301",
"+	c #CAB101",
"@	c #FBEF9C",
"#	c #F9EB8F",
"$	c #F8EA8D",
"%	c #F8E98A",
"&	c #F6E785",
"*	c #F3E37C",
"=	c #F0E074",
"-	c #EEDD6F",
";	c #D5C44D",
">	c #C8AF01",
",	c #FBED95",
"'	c #F7E67E",
")	c #F6E57C",
"!	c #F5E47B",
"~	c #F4E379",
"{	c #F1E075",
"]	c #ECDB70",
"^	c #E8D76A",
"/	c #E6D567",
"(	c #CDBC45",
"_	c #FFF6BB",
":	c #C6AD01",
"<	c #FCEB84",
"[	c #B7A73A",
"}	c #BFAE37",
"|	c #AC9401",
"1	c #C3AA01",
"2	c #FBED97",
"3	c #EEDD7B",
"4	c #9D96F6",
"5	c #E1D26F",
"6	c #C0A701",
"7	c #006E6E",
"8	c #00FFFF",
"9	c #BCA401",
"0	c #AFA358",
"a	c #ADA054",
"b	c #B9A101",
"c	c #B59E01",
"d	c #FEF19E",
"e	c #EDDD7C",
"f	c #E5D575",
"g	c #E5D571",
"h	c #B29A01",
"i	c #FFF2A1",
"j	c #FEED87",
"k	c #FDEC86",
"l	c #FDEC85",
"m	c #FBEA82",
"n	c #FAE981",
"o	c #F8E77F",
"p	c #A89100",
"q	c #FFF4AF",
"r	c #FFF1A0",
"s	c #FDF09C",
"t	c #FDEF9B",
"u	c #FCEE99",
"v	c #FAEC92",
"w	c #F9EA90",
"x	c #FAEC96",
"y	c #9D8600",
"z	c #9C8500",
"                ",
"                ",
" ...........    ",
" +@#$%&*=--;+   ",
" >,')!~{]^/(_>  ",
" :<<<<<<<<<[}}| ",
" 1234445444''-1 ",
" 647887478874-6 ",
" 94800878a084=9 ",
" b47887478874*b ",
" cde444f444g{&c ",
" hijkl<mno')!%h ",
" pqirdstu2,vwxp ",
" yzzzzzzzzzzzzy ",
"                ",
"                "};
