/* XPM */
static char * sticky_note_clip_bits[] = {
"16 16 80 1",
" 	c None",
".	c #CCB301",
"+	c #CAB101",
"@	c #FBEF9C",
"#	c #F9EB8F",
"$	c #F8EA8D",
"%	c #F8E98A",
"&	c #F7E992",
"*	c #EDE1A3",
"=	c #555753",
"-	c #DFCF67",
";	c #D5C44D",
">	c #C8AF01",
",	c #FBED95",
"'	c #F7E67E",
")	c #F6E57C",
"!	c #F6E68A",
"~	c #ECE0A0",
"{	c #BABDB6",
"]	c #EFE3A7",
"^	c #CDBC45",
"/	c #FFF6BB",
"(	c #C6AD01",
"_	c #FBED97",
":	c #F8E77F",
"<	c #F8E88D",
"[	c #EDE0A0",
"}	c #F5E68F",
"|	c #F0E39B",
"1	c #888A85",
"2	c #BFAE37",
"3	c #AC9401",
"4	c #C3AA01",
"5	c #FCEE99",
"6	c #F7E78B",
"7	c #EBDE9C",
"8	c #F8EBA2",
"9	c #ECDB70",
"0	c #E8D76A",
"a	c #E6D567",
"b	c #EEDD6F",
"c	c #C0A701",
"d	c #FDF0A5",
"e	c #DCD695",
"f	c #EAE29B",
"g	c #E8E098",
"h	c #DACB69",
"i	c #BCA401",
"j	c #FDF3B6",
"k	c #B9A101",
"l	c #FEF4B7",
"m	c #E0D986",
"n	c #F5E47B",
"o	c #F4E379",
"p	c #F1E075",
"q	c #F3E37C",
"r	c #B59E01",
"s	c #FFF3B4",
"t	c #DECF6F",
"u	c #F4E47D",
"v	c #F5E47C",
"w	c #F6E785",
"x	c #B29A01",
"y	c #FFF2A3",
"z	c #FBEDA4",
"A	c #F0E07C",
"B	c #F3E27C",
"C	c #F5E47D",
"D	c #A89100",
"E	c #FFF4AF",
"F	c #FFF2A1",
"G	c #FFF1A0",
"H	c #FEF19E",
"I	c #FDF09C",
"J	c #FDEF9B",
"K	c #FAEC92",
"L	c #F9EA90",
"M	c #FAEC96",
"N	c #9D8600",
"O	c #9C8500",
"                ",
"                ",
" ...........    ",
" +@#$%&*==-;+   ",
" >,')!~={]=^/>  ",
" (_:<[=}=|1{223 ",
" 4567=8=8=90ab4 ",
" cde=f=g=}h90bc ",
" ij1818=8={)))i ",
" kl=m=1f={nopqk ",
" rs1t)8={uvnowr ",
" xyz1=1{ABC)n%x ",
" DEFGHIJ5_,KLMD ",
" NOOOOOOOOOOOON ",
"                ",
"                "};
