/* XPM */
static char * switchmedit_xpm[] = {
"16 16 12 1",
" 	c None",
".	c #8AE234",
"+	c #73D216",
"@	c #4E9A06",
"#	c #EE2828",
"$	c #EF2828",
"%	c #EF2929",
"&	c #ED2828",
"*	c #EE2929",
"=	c #2E3436",
"-	c #E9B96E",
";	c #000000",
"            .++@",
"   #$%     .++@ ",
"   ##%&   .++@  ",
"    *%*  .++@   ",
"    #%%#.++@    ",
"     %%.++@     ",
"     #.++@      ",
"     .++@       ",
"    .++@        ",
"   +++@==       ",
"   -+@= ==      ",
"  -;-=   ==     ",
"  ;-==    =     ",
"   ==     ==    ",
"  ===     ===   ",
"  ==       ==   "};
