/* XPM */
static char * switchmdel_xpm[] = {
"16 16 5 1",
" 	c None",
".	c #BABDB6",
"+	c #EF2929",
"@	c #2E3436",
"#	c #898A83",
"                ",
"    ..          ",
"   +...      +  ",
"  +++..     +++ ",
"   +++..   +++  ",
"    +++.  +++   ",
"     +++.+++    ",
"      +++++     ",
"      ++++      ",
"     ++++++     ",
"    +++ @+++    ",
"   +++   @+++   ",
"  +++@    @+++  ",
" +++@     @@+++ ",
"  +@@      @@+  ",
"  @@       @@   "};
