/* XPM */
static char * switchm_xpm[] = {
"16 16 13 1",
" 	c None",
".	c #EF2828",
"+	c #EF2929",
"@	c #EE2828",
"#	c #ED2828",
"$	c #EE2929",
"%	c #F35820",
"&	c #EC2828",
"*	c #E92C2C",
"=	c #D5403F",
"-	c #898A83",
";	c #8B7247",
">	c #8A8577",
"                ",
"    .+          ",
"    @+#         ",
"    $+$         ",
"     ++         ",
"     ++%        ",
"     @+&        ",
"      *=        ",
"       -        ",
"       ;        ",
"       ;;       ",
"      ;>-       ",
"      ; -;      ",
"     ;  - ;     ",
"     ;  - ;     ",
"    ;;;;;;;;    "};
