/* XPM */
static char *switchmnew_xpm[] = {
"16 16 12 1",
" 	c None",
".	c #EDD400",
"+	c #EF2929",
"@	c #FCE94F",
"#	c #EEEEEC",
"$	c #EE2828",
"%	c #EC2828",
"&	c #E92C2C",
"*	c #D5403F",
"=	c #2E3436",
"-	c #5F625F",
";	c #898A83",
"  ...           ",
"  ...+          ",
"..@##..         ",
"..@##...        ",
"..@@@..$        ",
"  ...++$        ",
"  ...$+%$       ",
"   .  &*$       ",
"       =        ",
"      ===       ",
"     == ==      ",
"    ==   ==     ",
"    ==    =     ",
"   ==     ==    ",
"  ===     ===   ",
"  ==       ==   "};
