/* XPM */
static char * yellowdot[] = {
"16 16 8 1",
" 	c None",
".	c #000000",
"+	c #B69A19",
"@	c #E0C504",
"#	c #EBD200",
"$	c #CFB410",
"%	c #EFD947",
"&	c #EDD400",
"                ",
"                ",
"      ....      ",
"    .+@##@+.    ",
"   .$%%%&&&$.   ",
"   +%%%%%&&&+   ",
"  .@%%%%%&&&@.  ",
"  .#%%%%%&&&#.  ",
"  .#&%%%&&&&#.  ",
"  .@&&&&&&&&@.  ",
"   +&&&&&&&&+   ",
"   .$&&&&&&$.   ",
"    .+@##@+.    ",
"      ....      ",
"                ",
"                "};
