/* XPM */
static char * yellowstar[] = {
"16 16 36 1",
" 	c None",
".	c #000000",
"+	c #CCB301",
"@	c #D4BE22",
"#	c #E3D560",
"$	c #E3D55F",
"%	c #C3AB01",
"&	c #EDD400",
"*	c #EFD947",
"=	c #C9B31C",
"-	c #BAA201",
";	c #BAA303",
">	c #CBB930",
",	c #CAB625",
"'	c #BDA70B",
")	c #BCA608",
"!	c #D4D13C",
"~	c #DED632",
"{	c #E8DB37",
"]	c #E8DB29",
"^	c #E9DC30",
"/	c #E9DB2D",
"(	c #E8DA29",
"_	c #E6D82A",
":	c #B19B0D",
"<	c #AF990B",
"[	c #AF9909",
"}	c #B09A09",
"|	c #C2AE13",
"1	c #CEBB18",
"2	c #9D8702",
"3	c #CDBA15",
"4	c #C2AE11",
"5	c #937E00",
"6	c #A18C05",
"7	c #957F00",
"      .  .      ",
"      .++.      ",
"      .@@.      ",
"     . #$ .     ",
"     .%&&%.     ",
"......***=......",
"-----****&------",
".;>&&***&&&&&,;.",
" ..'&&&&&&&&).. ",
"   .;&&!!!&;.   ",
"    .&~~~~&.    ",
"    .{]^/(_.    ",
"   .:&&<[&&}.   ",
"   .|12..234.   ",
"  .56..  ..65.  ",
"  .7.      .7.  "};
